<?xml version="1.0" encoding="UTF-8" standalone="no"?>
<!-- Created with Inkscape (http://www.inkscape.org/) -->

<svg
   width="132.33664mm"
   height="132.29167mm"
   viewBox="0 0 132.33664 132.29167"
   version="1.1"
   id="svg1"
   xml:space="preserve"
   xmlns:inkscape="http://www.inkscape.org/namespaces/inkscape"
   xmlns:sodipodi="http://sodipodi.sourceforge.net/DTD/sodipodi-0.dtd"
   xmlns="http://www.w3.org/2000/svg"
   xmlns:svg="http://www.w3.org/2000/svg"><sodipodi:namedview
     id="namedview1"
     pagecolor="#ffffff"
     bordercolor="#000000"
     borderopacity="0.25"
     inkscape:showpageshadow="2"
     inkscape:pageopacity="0.0"
     inkscape:pagecheckerboard="0"
     inkscape:deskcolor="#d1d1d1"
     inkscape:document-units="mm" /><defs
     id="defs1"><style
       id="style1">
      .cls-1 {
        fill: #b7715c;
      }

      .cls-1, .cls-2, .cls-3, .cls-4, .cls-5, .cls-6, .cls-7, .cls-8, .cls-9, .cls-10, .cls-11, .cls-12, .cls-13, .cls-14, .cls-15, .cls-16 {
        stroke-width: 0px;
      }

      .cls-2 {
        fill: #000;
      }

      .cls-17 {
        clip-path: url(#clippath-2);
      }

      .cls-3 {
        fill: #c98165;
      }

      .cls-4 {
        fill: #435282;
      }

      .cls-5 {
        fill: #f9bb94;
      }

      .cls-6, .cls-18 {
        fill: none;
      }

      .cls-19 {
        clip-path: url(#clippath-1);
      }

      .cls-7 {
        fill: #182023;
      }

      .cls-8 {
        fill: #95c4c2;
      }

      .cls-20 {
        clip-path: url(#clippath);
      }

      .cls-9 {
        fill: #8bb1b2;
      }

      .cls-10 {
        fill: #e8505b;
      }

      .cls-11 {
        fill: #369688;
      }

      .cls-12 {
        fill: #231f20;
      }

      .cls-13 {
        fill: #fff;
      }

      .cls-18 {
        stroke: #231f20;
        stroke-linecap: round;
        stroke-miterlimit: 10;
        stroke-width: .75px;
      }

      .cls-14 {
        fill: #3a4989;
      }

      .cls-15 {
        fill: #f9ae87;
      }

      .cls-16 {
        fill: #d8d8d8;
      }
    </style><clipPath
       id="clippath"><rect
         class="cls-6"
         x="436.64001"
         y="104.57"
         width="76.019997"
         height="261.85001"
         id="rect1" /></clipPath><clipPath
       id="clippath-1"><rect
         class="cls-6"
         x="13.46"
         y="113.86"
         width="78.559998"
         height="227.22"
         id="rect2" /></clipPath><clipPath
       id="clippath-2"><rect
         class="cls-6"
         x="13.63"
         y="292.54999"
         width="500"
         height="207.45"
         id="rect3" /></clipPath></defs><g
     inkscape:label="Layer 1"
     inkscape:groupmode="layer"
     id="layer1"
     transform="translate(-62.264108,-121.5337)"><g
       id="g1"
       transform="matrix(0.26458333,0,0,0.26458333,58.702819,121.5337)"><g
         id="BACKGROUND"><rect
           class="cls-8"
           x="13.63"
           width="500"
           height="343.48999"
           id="rect4"
           y="0" /><path
           class="cls-11"
           d="m 512.66,321.85 v -58.53 c -16.92,3.08 -32.16,16.3 -36.01,33.23 -6.63,-8.21 -20.05,-8.34 -28.62,-2.19 -8.57,6.15 -12.8,16.89 -13.89,27.38 -12.32,-12.86 -35.16,-13.5 -48.18,-1.34 1.03,-9.14 -3.43,-18.7 -11.11,-23.76 -7.68,-5.07 -18.22,-5.42 -26.22,-0.88 -2.04,-9.35 -9.82,-17.19 -19.16,-19.29 -9.33,-2.11 -19.73,1.63 -25.59,9.19 -0.23,-11.32 -12.43,-20.18 -23.63,-18.56 -11.21,1.62 -20,11.87 -21.85,23.05 -4.38,-6.36 -14.2,-7.14 -20.78,-3.09 -6.58,4.05 -10.25,11.63 -11.77,19.2 -1.46,-10.65 -11.45,-19.46 -22.2,-19.58 -10.75,-0.11 -20.93,8.49 -22.61,19.11 -3.03,-11.29 -14.57,-19.67 -26.25,-19.05 -11.68,0.62 -22.27,10.17 -24.09,21.72 C 119.9,298.45 102.17,296.95 89.85,305.01 87.38,288.3 65.21,278.22 50.99,287.35 45.1,273.68 26.41,268.35 13.46,274.81 v 148.24 c 0.06,0 0.12,0 0.17,0 V 500 h 500 V 321.85 Z"
           id="path4" /></g><g
         id="OBJECTS"><g
           id="g6"><path
             class="cls-13"
             d="m 458.6,78.8 c 5.6,-0.02 11.2,-0.09 16.8,-0.21 0.43,-3.94 -0.91,-8.04 -3.58,-10.98 -2.67,-2.93 -6.63,-4.65 -10.59,-4.59 -0.58,-4.59 -2.12,-9.22 -5.34,-12.54 -6.75,-6.96 -15.57,-3.71 -21.36,2.37 -3.33,-11.98 -8.38,-25.79 -20.33,-29.24 -7.22,-2.08 -15.29,0.61 -20.73,5.78 -5.44,5.18 -8.46,12.52 -9.56,19.94 -4.53,-3.84 -11.17,-5.03 -16.76,-2.99 -5.58,2.04 -9.9,7.21 -10.9,13.07 -9.47,-6.46 -24.36,-2.26 -29.05,8.2 -6.58,0.38 -14.66,3.26 -15.03,11.32 12.39,0 21.93,-0.56 32.6,-0.56 h 47 c 22.34,0 44.56,0.51 66.82,0.41 z"
             id="path5" /><path
             class="cls-13"
             d="m 71.49,68.34 c -4.4,-0.02 -8.81,-0.07 -13.21,-0.16 -0.34,-3.1 0.71,-6.33 2.81,-8.63 2.1,-2.31 5.21,-3.65 8.33,-3.61 0.45,-3.61 1.67,-7.25 4.2,-9.86 5.31,-5.48 12.24,-2.92 16.79,1.86 2.62,-9.42 6.59,-20.28 15.99,-22.99 5.67,-1.64 12.02,0.48 16.3,4.55 4.28,4.07 6.65,9.84 7.52,15.68 3.57,-3.02 8.78,-3.95 13.17,-2.35 4.39,1.6 7.79,5.67 8.57,10.28 7.45,-5.08 19.15,-1.78 22.84,6.45 5.17,0.3 11.52,2.57 11.81,8.9 -9.74,0 -17.25,-0.44 -25.63,-0.44 h -36.95 c -17.57,0 -35.04,0.4 -52.54,0.33 z"
             id="path6" /></g><g
           id="g11"><g
             class="cls-20"
             clip-path="url(#clippath)"
             id="g8"><g
               id="g7"><path
                 class="cls-11"
                 d="m 459.42,132.09 c -8.02,10.2 -10.84,23.86 -9.45,36.75 0.74,6.82 2.58,13.63 1.8,20.45 -1.38,12.16 -10.85,22.53 -11.1,34.76 -0.17,8.25 4.11,16.23 10.39,21.59 6.28,5.36 14.37,8.28 22.55,9.41 10.06,1.39 20.65,0.11 29.6,-4.68 8.96,-4.79 16.1,-13.29 18.21,-23.23 2.18,-10.27 -1.02,-20.94 -5.45,-30.46 -3.26,-7 -7.27,-13.92 -7.98,-21.61 -0.47,-5.08 0.53,-10.16 1.05,-15.23 1.01,-9.8 0.02,-20.32 -5.67,-28.37 -10.52,-14.87 -33.44,-12.77 -43.95,0.59 z"
                 id="path7" /><polygon
                 class="cls-16"
                 points="472.4,184.72 475.24,180.46 481.88,188.52 485.68,170.5 490.42,173.34 484.73,193.73 482.06,344.56 473.52,343.61 479.99,192.79 "
                 id="polygon7" /></g></g><g
             class="cls-19"
             clip-path="url(#clippath-1)"
             id="g10"><g
               id="g9"><path
                 class="cls-11"
                 d="m 26.1,132.09 c -8.02,10.2 -10.84,23.86 -9.45,36.75 0.74,6.82 2.58,13.63 1.8,20.45 -1.38,12.16 -10.85,22.53 -11.1,34.76 -0.17,8.25 4.11,16.23 10.39,21.59 6.28,5.36 14.37,8.28 22.55,9.41 10.06,1.39 20.65,0.11 29.6,-4.68 8.96,-4.79 16.1,-13.29 18.21,-23.23 2.18,-10.27 -1.02,-20.94 -5.45,-30.46 -3.26,-7 -7.27,-13.92 -7.98,-21.61 -0.47,-5.08 0.53,-10.16 1.05,-15.23 1.01,-9.8 0.02,-20.32 -5.67,-28.37 C 59.53,116.6 36.61,118.7 26.1,132.06 Z"
                 id="path8" /><polygon
                 class="cls-16"
                 points="57.1,184.72 54.25,180.46 47.61,188.52 43.82,170.5 39.08,173.34 44.77,193.73 47.44,344.56 55.97,343.61 49.51,192.79 "
                 id="polygon8" /></g></g></g><g
           id="g210"><g
             id="g166"><path
               class="cls-16"
               d="m 83.46,338.34 57.95,-19.77 h 242.95 l 58.07,19.77 c 0,0 -359.49,-0.51 -358.97,0 z"
               id="path11" /><path
               class="cls-16"
               d="m 92.28,105.69 49.24,53.34 h 242.95 l 49.46,-53.34 c 0,0 -342.38,-0.73 -341.65,0 z"
               id="path12" /><rect
               class="cls-7"
               x="83.459999"
               y="338.34"
               width="358.97"
               height="30.610001"
               id="rect12" /><g
               id="g52"><rect
                 class="cls-7"
                 x="86.809998"
                 y="116.79"
                 width="28.84"
                 height="1"
                 transform="rotate(-53.02,101.21207,117.29344)"
                 id="rect13" /><rect
                 class="cls-7"
                 x="100.72"
                 y="102.87"
                 width="1"
                 height="28.84"
                 transform="rotate(-36.07,101.20573,117.27998)"
                 id="rect14" /><rect
                 class="cls-7"
                 x="103.79"
                 y="116.79"
                 width="28.84"
                 height="1"
                 transform="rotate(-53.02,118.20975,117.29715)"
                 id="rect15" /><rect
                 class="cls-7"
                 x="117.71"
                 y="102.87"
                 width="1"
                 height="28.84"
                 transform="rotate(-36.07,118.18723,117.28912)"
                 id="rect16" /><rect
                 class="cls-7"
                 x="120.78"
                 y="116.79"
                 width="28.84"
                 height="1"
                 transform="rotate(-53.02,135.18739,117.29086)"
                 id="rect17" /><rect
                 class="cls-7"
                 x="134.69"
                 y="102.87"
                 width="1"
                 height="28.84"
                 transform="rotate(-36.07,135.17372,117.28291)"
                 id="rect18" /><rect
                 class="cls-7"
                 x="137.75999"
                 y="116.79"
                 width="28.84"
                 height="1"
                 transform="rotate(-53.02,152.16002,117.29459)"
                 id="rect19" /><rect
                 class="cls-7"
                 x="151.67999"
                 y="102.87"
                 width="1"
                 height="28.84"
                 transform="rotate(-36.07,152.15521,117.29205)"
                 id="rect20" /><rect
                 class="cls-7"
                 x="154.74001"
                 y="116.79"
                 width="28.84"
                 height="1"
                 transform="rotate(-53.02,169.14768,117.2933)"
                 id="rect21" /><rect
                 class="cls-7"
                 x="168.66"
                 y="102.87"
                 width="1"
                 height="28.84"
                 transform="rotate(-36.07,169.1417,117.28583)"
                 id="rect22" /><rect
                 class="cls-7"
                 x="171.73"
                 y="116.79"
                 width="28.84"
                 height="1"
                 transform="rotate(-53.02,186.12531,117.287)"
                 id="rect23" /><rect
                 class="cls-7"
                 x="185.64999"
                 y="102.87"
                 width="1"
                 height="28.84"
                 transform="rotate(-36.07,186.10784,117.28997)"
                 id="rect24" /><rect
                 class="cls-7"
                 x="188.71001"
                 y="116.79"
                 width="28.84"
                 height="1"
                 transform="rotate(-53.02,203.123,117.29071)"
                 id="rect25" /><rect
                 class="cls-7"
                 x="202.63"
                 y="102.87"
                 width="1"
                 height="28.84"
                 transform="rotate(-36.07,203.10969,117.28876)"
                 id="rect26" /><rect
                 class="cls-7"
                 x="205.7"
                 y="116.79"
                 width="28.84"
                 height="1"
                 transform="rotate(-53.02,220.11066,117.28942)"
                 id="rect27" /><rect
                 class="cls-7"
                 x="219.61"
                 y="102.87"
                 width="1"
                 height="28.84"
                 transform="rotate(-36.07,220.09118,117.2979)"
                 id="rect28" /><rect
                 class="cls-7"
                 x="222.67999"
                 y="116.79"
                 width="28.84"
                 height="1"
                 transform="rotate(-53.02,237.07327,117.28815)"
                 id="rect29" /><rect
                 class="cls-7"
                 x="236.60001"
                 y="102.87"
                 width="1"
                 height="28.84"
                 transform="rotate(-36.07,237.06232,117.28668)"
                 id="rect30" /><rect
                 class="cls-7"
                 x="239.66"
                 y="116.79"
                 width="28.84"
                 height="1"
                 transform="rotate(-53.02,254.05593,117.29688)"
                 id="rect31" /><rect
                 class="cls-7"
                 x="253.58"
                 y="102.87"
                 width="1"
                 height="28.84"
                 transform="rotate(-36.07,254.04381,117.29582)"
                 id="rect32" /><rect
                 class="cls-7"
                 x="256.64999"
                 y="116.79"
                 width="28.84"
                 height="1"
                 transform="rotate(-53.02,271.04358,117.29558)"
                 id="rect33" /><rect
                 class="cls-7"
                 x="270.57001"
                 y="102.87"
                 width="1"
                 height="28.84"
                 transform="rotate(-36.07,271.0303,117.2896)"
                 id="rect34" /><rect
                 class="cls-7"
                 x="273.63"
                 y="116.79"
                 width="28.84"
                 height="1"
                 transform="rotate(-53.02,288.01622,117.29932)"
                 id="rect35" /><rect
                 class="cls-7"
                 x="287.54999"
                 y="102.87"
                 width="1"
                 height="28.84"
                 transform="rotate(-36.07,288.01679,117.28339)"
                 id="rect36" /><rect
                 class="cls-7"
                 x="290.62"
                 y="116.79"
                 width="28.84"
                 height="1"
                 transform="rotate(-53.02,305.00388,117.29802)"
                 id="rect37" /><rect
                 class="cls-7"
                 x="304.53"
                 y="102.87"
                 width="1"
                 height="28.84"
                 transform="rotate(-36.07,304.98293,117.28753)"
                 id="rect38" /><rect
                 class="cls-7"
                 x="307.60001"
                 y="116.79"
                 width="28.84"
                 height="1"
                 transform="rotate(-53.02,322.00656,117.2917)"
                 id="rect39" /><rect
                 class="cls-7"
                 x="321.51999"
                 y="102.87"
                 width="1"
                 height="28.84"
                 transform="rotate(-36.07,321.96442,117.29667)"
                 id="rect40" /><rect
                 class="cls-7"
                 x="324.57999"
                 y="116.79"
                 width="28.84"
                 height="1"
                 transform="rotate(-53.02,338.96417,117.30046)"
                 id="rect41" /><rect
                 class="cls-7"
                 x="338.5"
                 y="102.87"
                 width="1"
                 height="28.84"
                 transform="rotate(-36.07,338.96627,117.29545)"
                 id="rect42" /><rect
                 class="cls-7"
                 x="341.57001"
                 y="116.79"
                 width="28.84"
                 height="1"
                 transform="rotate(-53.02,355.95183,117.29917)"
                 id="rect43" /><rect
                 class="cls-7"
                 x="355.48999"
                 y="102.87"
                 width="1"
                 height="28.84"
                 transform="rotate(-36.07,355.93241,117.29959)"
                 id="rect44" /><rect
                 class="cls-7"
                 x="358.54999"
                 y="116.79"
                 width="28.84"
                 height="1"
                 transform="rotate(-53.02,372.93949,117.29787)"
                 id="rect45" /><rect
                 class="cls-7"
                 x="372.47"
                 y="102.87"
                 width="1"
                 height="28.84"
                 transform="rotate(-36.07,372.9189,117.29337)"
                 id="rect46" /><rect
                 class="cls-7"
                 x="375.54001"
                 y="116.79"
                 width="28.84"
                 height="1"
                 transform="rotate(-53.02,389.92215,117.3066)"
                 id="rect47" /><rect
                 class="cls-7"
                 x="389.45001"
                 y="102.87"
                 width="1"
                 height="28.84"
                 transform="rotate(-36.07,389.92075,117.29216)"
                 id="rect48" /><rect
                 class="cls-7"
                 x="392.51999"
                 y="116.79"
                 width="28.84"
                 height="1"
                 transform="rotate(-53.02,406.89978,117.30031)"
                 id="rect49" /><rect
                 class="cls-7"
                 x="406.44"
                 y="102.87"
                 width="1"
                 height="28.84"
                 transform="rotate(-36.07,406.90224,117.3013)"
                 id="rect50" /><rect
                 class="cls-7"
                 x="409.5"
                 y="116.79"
                 width="28.84"
                 height="1"
                 transform="rotate(-53.02,423.91249,117.29899)"
                 id="rect51" /><rect
                 class="cls-7"
                 x="423.42001"
                 y="102.87"
                 width="1"
                 height="28.84"
                 transform="rotate(-36.07,423.86838,117.30544)"
                 id="rect52" /><path
                 class="cls-7"
                 d="M 434.92,129.72 H 91.28 v -25.04 h 343.65 v 25.04 z m -341.64,-2 H 432.93 V 106.68 H 93.28 Z"
                 id="path52" /></g><g
               id="g76"><path
                 class="cls-7"
                 d="M 116.59,339.51 H 91.55 V 127.99 h 25.04 V 339.5 Z m -23.04,-2 h 21.04 V 130 H 93.55 Z"
                 id="path53" /><rect
                 class="cls-7"
                 x="103.57"
                 y="122.74"
                 width="1"
                 height="28.959999"
                 transform="rotate(-52.7,104.05874,137.21432)"
                 id="rect53" /><rect
                 class="cls-7"
                 x="89.589996"
                 y="136.72"
                 width="28.959999"
                 height="1"
                 transform="rotate(-36.38,104.0657,137.22326)"
                 id="rect54" /><rect
                 class="cls-7"
                 x="103.57"
                 y="140.28999"
                 width="1"
                 height="28.959999"
                 transform="rotate(-52.7,104.05407,154.7613)"
                 id="rect55" /><rect
                 class="cls-7"
                 x="89.589996"
                 y="154.27"
                 width="28.959999"
                 height="1"
                 transform="rotate(-36.38,104.06476,154.77367)"
                 id="rect56" /><rect
                 class="cls-7"
                 x="103.57"
                 y="157.84"
                 width="1"
                 height="28.959999"
                 transform="rotate(-52.7,104.05949,172.31328)"
                 id="rect57" /><rect
                 class="cls-7"
                 x="89.589996"
                 y="171.82001"
                 width="28.959999"
                 height="1"
                 transform="rotate(-36.38,104.06381,172.32409)"
                 id="rect58" /><rect
                 class="cls-7"
                 x="103.57"
                 y="175.39"
                 width="1"
                 height="28.959999"
                 transform="rotate(-52.7,104.05482,189.86027)"
                 id="rect59" /><rect
                 class="cls-7"
                 x="89.589996"
                 y="189.37"
                 width="28.959999"
                 height="1"
                 transform="rotate(-36.38,104.07808,189.8795)"
                 id="rect60" /><rect
                 class="cls-7"
                 x="103.57"
                 y="192.94"
                 width="1"
                 height="28.959999"
                 transform="rotate(-52.7,104.06025,207.41225)"
                 id="rect61" /><rect
                 class="cls-7"
                 x="89.589996"
                 y="206.92"
                 width="28.959999"
                 height="1"
                 transform="rotate(-36.38,104.06692,207.4097)"
                 id="rect62" /><rect
                 class="cls-7"
                 x="103.57"
                 y="210.5"
                 width="1"
                 height="28.959999"
                 transform="rotate(-52.7,104.05558,224.95923)"
                 id="rect63" /><rect
                 class="cls-7"
                 x="89.589996"
                 y="224.47"
                 width="28.959999"
                 height="1"
                 transform="rotate(-36.38,104.06598,224.96011)"
                 id="rect64" /><rect
                 class="cls-7"
                 x="103.57"
                 y="228.05"
                 width="1"
                 height="28.959999"
                 transform="rotate(-52.7,104.061,242.51122)"
                 id="rect65" /><rect
                 class="cls-7"
                 x="89.589996"
                 y="242.03"
                 width="28.959999"
                 height="1"
                 transform="rotate(-36.38,104.06503,242.51053)"
                 id="rect66" /><rect
                 class="cls-7"
                 x="103.57"
                 y="245.60001"
                 width="1"
                 height="28.959999"
                 transform="rotate(-52.7,104.05633,260.0582)"
                 id="rect67" /><rect
                 class="cls-7"
                 x="89.589996"
                 y="259.57999"
                 width="28.959999"
                 height="1"
                 transform="rotate(-36.38,104.06409,260.06094)"
                 id="rect68" /><rect
                 class="cls-7"
                 x="103.57"
                 y="263.14999"
                 width="1"
                 height="28.959999"
                 transform="rotate(-52.7,104.05166,277.60518)"
                 id="rect69" /><rect
                 class="cls-7"
                 x="89.589996"
                 y="277.13"
                 width="28.959999"
                 height="1"
                 transform="rotate(-36.38,104.06314,277.61136)"
                 id="rect70" /><rect
                 class="cls-7"
                 x="103.57"
                 y="280.70001"
                 width="1"
                 height="28.959999"
                 transform="rotate(-52.7,104.05709,295.15717)"
                 id="rect71" /><rect
                 class="cls-7"
                 x="89.589996"
                 y="294.67999"
                 width="28.959999"
                 height="1"
                 transform="rotate(-36.38,104.0622,295.16177)"
                 id="rect72" /><rect
                 class="cls-7"
                 x="103.57"
                 y="298.25"
                 width="1"
                 height="28.959999"
                 transform="rotate(-52.7,104.05242,312.70415)"
                 id="rect73" /><rect
                 class="cls-7"
                 x="89.589996"
                 y="312.23001"
                 width="28.959999"
                 height="1"
                 transform="rotate(-36.38,104.07147,312.7324)"
                 id="rect74" /><rect
                 class="cls-7"
                 x="103.57"
                 y="315.79999"
                 width="1"
                 height="28.959999"
                 transform="rotate(-52.7,104.05284,330.26623)"
                 id="rect75" /><rect
                 class="cls-7"
                 x="89.589996"
                 y="329.78"
                 width="28.959999"
                 height="1"
                 transform="rotate(-36.38,104.06031,330.2626)"
                 id="rect76" /></g><g
               id="g100"><path
                 class="cls-7"
                 d="M 434.69,339.51 H 409.65 V 127.99 h 25.04 V 339.5 Z m -23.03,-2 H 432.7 V 130 h -21.04 z"
                 id="path76" /><rect
                 class="cls-7"
                 x="421.67001"
                 y="122.74"
                 width="1"
                 height="28.959999"
                 transform="rotate(-52.7,422.14098,137.22449)"
                 id="rect77" /><rect
                 class="cls-7"
                 x="407.69"
                 y="136.72"
                 width="28.959999"
                 height="1"
                 transform="rotate(-36.42,422.23202,137.22014)"
                 id="rect78" /><rect
                 class="cls-7"
                 x="421.67001"
                 y="140.28999"
                 width="1"
                 height="28.959999"
                 transform="rotate(-52.7,422.13631,154.77148)"
                 id="rect79" /><rect
                 class="cls-7"
                 x="407.69"
                 y="154.27"
                 width="28.959999"
                 height="1"
                 transform="rotate(-36.42,422.23515,154.77212)"
                 id="rect80" /><rect
                 class="cls-7"
                 x="421.67001"
                 y="157.84"
                 width="1"
                 height="28.959999"
                 transform="rotate(-52.7,422.14174,172.32346)"
                 id="rect81" /><rect
                 class="cls-7"
                 x="407.69"
                 y="171.82001"
                 width="28.959999"
                 height="1"
                 transform="rotate(-36.42,422.22309,172.31911)"
                 id="rect82" /><rect
                 class="cls-7"
                 x="421.67001"
                 y="175.39"
                 width="1"
                 height="28.959999"
                 transform="rotate(-52.7,422.13707,189.87044)"
                 id="rect83" /><rect
                 class="cls-7"
                 x="407.69"
                 y="189.37"
                 width="28.959999"
                 height="1"
                 transform="rotate(-36.43,422.14327,189.87258)"
                 id="rect84" /><rect
                 class="cls-7"
                 x="421.67001"
                 y="192.94"
                 width="1"
                 height="28.959999"
                 transform="rotate(-52.7,422.1324,207.41743)"
                 id="rect85" /><rect
                 class="cls-7"
                 x="407.69"
                 y="206.92"
                 width="28.959999"
                 height="1"
                 transform="rotate(-36.42,422.22436,207.43829)"
                 id="rect86" /><rect
                 class="cls-7"
                 x="421.67001"
                 y="210.5"
                 width="1"
                 height="28.959999"
                 transform="rotate(-52.7,422.13782,224.96941)"
                 id="rect87" /><rect
                 class="cls-7"
                 x="407.69"
                 y="224.47"
                 width="28.959999"
                 height="1"
                 transform="rotate(-36.42,422.2275,224.99028)"
                 id="rect88" /><rect
                 class="cls-7"
                 x="421.67001"
                 y="228.05"
                 width="1"
                 height="28.959999"
                 transform="rotate(-52.7,422.15334,242.52639)"
                 id="rect89" /><rect
                 class="cls-7"
                 x="407.69"
                 y="242.03"
                 width="28.959999"
                 height="1"
                 transform="rotate(-36.42,422.23063,242.54227)"
                 id="rect90" /><rect
                 class="cls-7"
                 x="421.67001"
                 y="245.60001"
                 width="1"
                 height="28.959999"
                 transform="rotate(-52.7,422.13858,260.06838)"
                 id="rect91" /><rect
                 class="cls-7"
                 x="407.69"
                 y="259.57999"
                 width="28.959999"
                 height="1"
                 transform="rotate(-36.42,422.23377,260.09426)"
                 id="rect92" /><rect
                 class="cls-7"
                 x="421.67001"
                 y="263.14999"
                 width="1"
                 height="28.959999"
                 transform="rotate(-52.7,422.13391,277.61536)"
                 id="rect93" /><rect
                 class="cls-7"
                 x="407.69"
                 y="277.13"
                 width="28.959999"
                 height="1"
                 transform="rotate(-36.42,422.2369,277.64624)"
                 id="rect94" /><rect
                 class="cls-7"
                 x="421.67001"
                 y="280.70001"
                 width="1"
                 height="28.959999"
                 transform="rotate(-52.7,422.13433,295.17744)"
                 id="rect95" /><rect
                 class="cls-7"
                 x="407.69"
                 y="294.67999"
                 width="28.959999"
                 height="1"
                 transform="rotate(-36.42,422.22484,295.19323)"
                 id="rect96" /><rect
                 class="cls-7"
                 x="421.67001"
                 y="298.25"
                 width="1"
                 height="28.959999"
                 transform="rotate(-52.7,422.12966,312.72442)"
                 id="rect97" /><rect
                 class="cls-7"
                 x="407.69"
                 y="312.23001"
                 width="28.959999"
                 height="1"
                 transform="rotate(-36.43,422.1343,312.71412)"
                 id="rect98" /><rect
                 class="cls-7"
                 x="421.67001"
                 y="315.79999"
                 width="1"
                 height="28.959999"
                 transform="rotate(-52.7,422.15018,330.27131)"
                 id="rect99" /><rect
                 class="cls-7"
                 x="407.69"
                 y="329.78"
                 width="28.959999"
                 height="1"
                 transform="rotate(-36.42,422.23111,330.29721)"
                 id="rect100" /></g><g
               id="g124"><path
                 class="cls-7"
                 d="M 384.88,319.33 H 365.87 V 158.4 h 19.01 z m -17.53,-1.48 H 383.4 V 159.89 h -16.05 z"
                 id="path100" /><rect
                 class="cls-7"
                 x="375"
                 y="154.39"
                 width="0.74000001"
                 height="22.040001"
                 transform="rotate(-52.7,375.34404,165.4108)"
                 id="rect101" /><rect
                 class="cls-7"
                 x="364.35001"
                 y="165.03999"
                 width="22.040001"
                 height="0.74000001"
                 transform="rotate(-36.42,375.42944,165.41423)"
                 id="rect102" /><rect
                 class="cls-7"
                 x="375"
                 y="167.74001"
                 width="0.74000001"
                 height="22.040001"
                 transform="rotate(-52.7,375.34377,178.7612)"
                 id="rect103" /><rect
                 class="cls-7"
                 x="364.35001"
                 y="178.39"
                 width="22.040001"
                 height="0.74000001"
                 transform="rotate(-36.42,375.43128,178.77176)"
                 id="rect104" /><rect
                 class="cls-7"
                 x="375"
                 y="181.10001"
                 width="0.74000001"
                 height="22.040001"
                 transform="rotate(-52.7,375.3385,192.1217)"
                 id="rect105" /><rect
                 class="cls-7"
                 x="364.35001"
                 y="191.75"
                 width="22.040001"
                 height="0.74000001"
                 transform="rotate(-36.42,375.36733,192.12448)"
                 id="rect106" /><rect
                 class="cls-7"
                 x="375"
                 y="194.46001"
                 width="0.74000001"
                 height="22.040001"
                 transform="rotate(-52.7,375.33823,205.47211)"
                 id="rect107" /><rect
                 class="cls-7"
                 x="364.35001"
                 y="205.11"
                 width="22.040001"
                 height="0.74000001"
                 transform="rotate(-36.42,375.36918,205.48201)"
                 id="rect108" /><rect
                 class="cls-7"
                 x="375"
                 y="207.81"
                 width="0.74000001"
                 height="22.040001"
                 transform="rotate(-52.7,375.34805,218.82752)"
                 id="rect109" /><rect
                 class="cls-7"
                 x="364.35001"
                 y="218.46001"
                 width="22.040001"
                 height="0.74000001"
                 transform="rotate(-36.42,375.42162,218.83933)"
                 id="rect110" /><rect
                 class="cls-7"
                 x="375"
                 y="221.17"
                 width="0.74000001"
                 height="22.040001"
                 transform="rotate(-52.7,375.34278,232.18802)"
                 id="rect111" /><rect
                 class="cls-7"
                 x="364.35001"
                 y="231.82001"
                 width="22.040001"
                 height="0.74000001"
                 transform="rotate(-36.42,375.37287,232.19706)"
                 id="rect112" /><rect
                 class="cls-7"
                 x="375"
                 y="234.53"
                 width="0.74000001"
                 height="22.040001"
                 transform="rotate(-52.7,375.35261,245.54342)"
                 id="rect113" /><rect
                 class="cls-7"
                 x="364.35001"
                 y="245.17999"
                 width="22.040001"
                 height="0.74000001"
                 transform="rotate(-36.42,375.42532,245.55439)"
                 id="rect114" /><rect
                 class="cls-7"
                 x="375"
                 y="247.88"
                 width="0.74000001"
                 height="22.040001"
                 transform="rotate(-52.7,375.32715,258.89392)"
                 id="rect115" /><rect
                 class="cls-7"
                 x="364.35001"
                 y="258.53"
                 width="22.040001"
                 height="0.74000001"
                 transform="rotate(-36.42,375.37657,258.91211)"
                 id="rect116" /><rect
                 class="cls-7"
                 x="375"
                 y="261.23999"
                 width="0.74000001"
                 height="22.040001"
                 transform="rotate(-52.7,375.34707,272.25433)"
                 id="rect117" /><rect
                 class="cls-7"
                 x="364.35001"
                 y="271.89001"
                 width="22.040001"
                 height="0.74000001"
                 transform="rotate(-36.42,375.37841,272.26964)"
                 id="rect118" /><rect
                 class="cls-7"
                 x="375"
                 y="274.60001"
                 width="0.74000001"
                 height="22.040001"
                 transform="rotate(-52.7,375.3418,285.61483)"
                 id="rect119" /><rect
                 class="cls-7"
                 x="364.35001"
                 y="285.25"
                 width="22.040001"
                 height="0.74000001"
                 transform="rotate(-36.42,375.42586,285.64216)"
                 id="rect120" /><rect
                 class="cls-7"
                 x="375"
                 y="287.95001"
                 width="0.74000001"
                 height="22.040001"
                 transform="rotate(-52.7,375.33143,298.96023)"
                 id="rect121" /><rect
                 class="cls-7"
                 x="364.35001"
                 y="298.60001"
                 width="22.040001"
                 height="0.74000001"
                 transform="rotate(-36.42,375.36691,298.97969)"
                 id="rect122" /><rect
                 class="cls-7"
                 x="375"
                 y="301.31"
                 width="0.74000001"
                 height="22.040001"
                 transform="rotate(-52.7,375.34635,312.33073)"
                 id="rect123" /><rect
                 class="cls-7"
                 x="364.35001"
                 y="311.95999"
                 width="22.040001"
                 height="0.74000001"
                 transform="rotate(-36.42,375.42955,312.35721)"
                 id="rect124" /></g><g
               id="g148"><path
                 class="cls-7"
                 d="M 160.01,319.33 H 141 V 158.4 h 19.01 z m -17.53,-1.48 h 16.05 V 159.89 h -16.05 z"
                 id="path124" /><rect
                 class="cls-7"
                 x="150.13"
                 y="154.39"
                 width="0.74000001"
                 height="22.040001"
                 transform="rotate(-52.7,150.48793,165.40336)"
                 id="rect125" /><rect
                 class="cls-7"
                 x="139.49001"
                 y="165.03999"
                 width="22.040001"
                 height="0.74000001"
                 transform="rotate(-36.42,150.53212,165.42188)"
                 id="rect126" /><rect
                 class="cls-7"
                 x="150.13"
                 y="167.74001"
                 width="0.74000001"
                 height="22.040001"
                 transform="rotate(-52.7,150.48766,178.75377)"
                 id="rect127" /><rect
                 class="cls-7"
                 x="139.49001"
                 y="178.39"
                 width="22.040001"
                 height="0.74000001"
                 transform="rotate(-36.42,150.53397,178.77941)"
                 id="rect128" /><rect
                 class="cls-7"
                 x="150.13"
                 y="181.10001"
                 width="0.74000001"
                 height="22.040001"
                 transform="rotate(-52.7,150.49248,192.11927)"
                 id="rect129" /><rect
                 class="cls-7"
                 x="139.49001"
                 y="191.75"
                 width="22.040001"
                 height="0.74000001"
                 transform="rotate(-36.42,150.50542,192.12693)"
                 id="rect130" /><rect
                 class="cls-7"
                 x="150.13"
                 y="194.46001"
                 width="0.74000001"
                 height="22.040001"
                 transform="rotate(-52.7,150.49221,205.46968)"
                 id="rect131" /><rect
                 class="cls-7"
                 x="139.49001"
                 y="205.11"
                 width="22.040001"
                 height="0.74000001"
                 transform="rotate(-36.42,150.50726,205.48446)"
                 id="rect132" /><rect
                 class="cls-7"
                 x="150.13"
                 y="207.81"
                 width="0.74000001"
                 height="22.040001"
                 transform="rotate(-52.7,150.49194,218.82008)"
                 id="rect133" /><rect
                 class="cls-7"
                 x="139.49001"
                 y="218.46001"
                 width="22.040001"
                 height="0.74000001"
                 transform="rotate(-36.42,150.53951,218.85198)"
                 id="rect134" /><rect
                 class="cls-7"
                 x="150.13"
                 y="221.17"
                 width="0.74000001"
                 height="22.040001"
                 transform="rotate(-52.7,150.48667,232.18058)"
                 id="rect135" /><rect
                 class="cls-7"
                 x="139.49001"
                 y="231.82001"
                 width="22.040001"
                 height="0.74000001"
                 transform="rotate(-36.42,150.51095,232.19951)"
                 id="rect136" /><rect
                 class="cls-7"
                 x="150.13"
                 y="234.53"
                 width="0.74000001"
                 height="22.040001"
                 transform="rotate(-52.7,150.4965,245.53599)"
                 id="rect137" /><rect
                 class="cls-7"
                 x="139.49001"
                 y="245.17999"
                 width="22.040001"
                 height="0.74000001"
                 transform="rotate(-36.42,150.5432,245.56704)"
                 id="rect138" /><rect
                 class="cls-7"
                 x="150.14"
                 y="247.88"
                 width="0.74000001"
                 height="22.040001"
                 transform="rotate(-52.7,150.48113,258.89149)"
                 id="rect139" /><rect
                 class="cls-7"
                 x="139.49001"
                 y="258.53"
                 width="22.040001"
                 height="0.74000001"
                 transform="rotate(-36.42,150.49945,258.90956)"
                 id="rect140" /><rect
                 class="cls-7"
                 x="150.14"
                 y="261.23999"
                 width="0.74000001"
                 height="22.040001"
                 transform="rotate(-52.7,150.49096,272.24689)"
                 id="rect141" /><rect
                 class="cls-7"
                 x="139.49001"
                 y="271.89001"
                 width="22.040001"
                 height="0.74000001"
                 transform="rotate(-36.42,150.5013,272.26709)"
                 id="rect142" /><rect
                 class="cls-7"
                 x="150.14"
                 y="274.60001"
                 width="0.74000001"
                 height="22.040001"
                 transform="rotate(-52.7,150.48569,285.60739)"
                 id="rect143" /><rect
                 class="cls-7"
                 x="139.49001"
                 y="285.25"
                 width="22.040001"
                 height="0.74000001"
                 transform="rotate(-36.42,150.52854,285.64981)"
                 id="rect144" /><rect
                 class="cls-7"
                 x="150.14"
                 y="287.95001"
                 width="0.74000001"
                 height="22.040001"
                 transform="rotate(-52.7,150.48542,298.9578)"
                 id="rect145" /><rect
                 class="cls-7"
                 x="139.49001"
                 y="298.60001"
                 width="22.040001"
                 height="0.74000001"
                 transform="rotate(-36.42,150.50499,298.98214)"
                 id="rect146" /><rect
                 class="cls-7"
                 x="150.14"
                 y="301.31"
                 width="0.74000001"
                 height="22.040001"
                 transform="rotate(-52.7,150.49024,312.3233)"
                 id="rect147" /><rect
                 class="cls-7"
                 x="139.49001"
                 y="311.95999"
                 width="22.040001"
                 height="0.74000001"
                 transform="rotate(-36.42,150.53223,312.36486)"
                 id="rect148" /></g><g
               id="g149"><rect
                 class="cls-7"
                 x="159.7"
                 y="128.99001"
                 width="13.16"
                 height="20.48"
                 id="rect149" /><ellipse
                 class="cls-11"
                 cx="166.28"
                 cy="149.16"
                 rx="6.5999999"
                 ry="4.0999999"
                 id="ellipse149" /></g><g
               id="g150"><rect
                 class="cls-7"
                 x="116.5"
                 y="190.25999"
                 width="13.16"
                 height="20.48"
                 transform="rotate(-83,123.0732,200.49883)"
                 id="rect150" /><path
                 class="cls-10"
                 d="m 133.74,195.15 c 2.25,0.28 3.71,3.43 3.27,7.06 -0.44,3.62 -2.63,6.33 -4.88,6.05 -2.25,-0.28 -3.71,-3.43 -3.27,-7.05 0.44,-3.62 2.63,-6.33 4.88,-6.05 z"
                 id="path150" /></g><g
               id="g151"><rect
                 class="cls-7"
                 x="114.89"
                 y="156.32001"
                 width="13.16"
                 height="20.48"
                 transform="rotate(-71.89,121.47437,166.55592)"
                 id="rect151" /><path
                 class="cls-13"
                 d="m 132.96,163.36 c 2.15,0.7 2.98,4.09 1.85,7.55 -1.13,3.47 -3.8,5.71 -5.95,5 -2.15,-0.71 -2.98,-4.09 -1.85,-7.55 1.13,-3.47 3.8,-5.71 5.95,-5 z"
                 id="path151" /></g><g
               id="g152"><rect
                 class="cls-7"
                 x="395.97"
                 y="190.25999"
                 width="13.16"
                 height="20.48"
                 transform="rotate(-97,402.57104,200.4865)"
                 id="rect152" /><path
                 class="cls-4"
                 d="m 391.9,195.15 c -2.25,0.28 -3.71,3.43 -3.27,7.06 0.44,3.62 2.63,6.33 4.88,6.05 2.25,-0.28 3.71,-3.43 3.27,-7.05 -0.44,-3.62 -2.63,-6.33 -4.88,-6.05 z"
                 id="path152" /></g><g
               id="g153"><rect
                 class="cls-7"
                 x="397.59"
                 y="156.32001"
                 width="13.16"
                 height="20.48"
                 transform="rotate(-108.11,404.15354,166.56284)"
                 id="rect153" /><path
                 class="cls-10"
                 d="m 392.68,163.36 c -2.15,0.7 -2.98,4.09 -1.85,7.55 1.13,3.47 3.8,5.71 5.95,5 2.15,-0.71 2.98,-4.09 1.85,-7.55 -1.13,-3.47 -3.8,-5.71 -5.95,-5 z"
                 id="path153" /></g><g
               id="g154"><rect
                 class="cls-7"
                 x="208.33"
                 y="128.99001"
                 width="13.16"
                 height="20.48"
                 id="rect154" /><ellipse
                 class="cls-4"
                 cx="214.91"
                 cy="149.16"
                 rx="6.5999999"
                 ry="4.0999999"
                 id="ellipse154" /></g><g
               id="g155"><rect
                 class="cls-7"
                 x="256.95999"
                 y="128.99001"
                 width="13.16"
                 height="20.48"
                 id="rect155" /><ellipse
                 class="cls-10"
                 cx="263.54001"
                 cy="149.16"
                 rx="6.5999999"
                 ry="4.0999999"
                 id="ellipse155" /></g><g
               id="g156"><rect
                 class="cls-7"
                 x="305.59"
                 y="128.99001"
                 width="13.16"
                 height="20.48"
                 id="rect156" /><ellipse
                 class="cls-13"
                 cx="312.17001"
                 cy="149.16"
                 rx="6.5999999"
                 ry="4.0999999"
                 id="ellipse156" /></g><g
               id="g157"><rect
                 class="cls-7"
                 x="354.22"
                 y="128.99001"
                 width="13.16"
                 height="20.48"
                 id="rect157" /><ellipse
                 class="cls-4"
                 cx="360.79999"
                 cy="149.16"
                 rx="6.5999999"
                 ry="4.0999999"
                 id="ellipse157" /></g><g
               id="g159"><rect
                 class="cls-7"
                 x="119.79"
                 y="259.16"
                 width="45.34"
                 height="76.779999"
                 rx="3.73"
                 ry="3.73"
                 id="rect158" /><circle
                 class="cls-16"
                 cx="142.46001"
                 cy="280.73001"
                 r="12.8"
                 id="circle158" /><circle
                 class="cls-16"
                 cx="142.46001"
                 cy="313.28"
                 r="14.7"
                 id="circle159" /></g><g
               id="g161"><rect
                 class="cls-7"
                 x="23.809999"
                 y="260.26001"
                 width="64.010002"
                 height="108.41"
                 rx="3.73"
                 ry="3.73"
                 id="rect159" /><circle
                 class="cls-16"
                 cx="55.82"
                 cy="290.72"
                 r="18.07"
                 transform="rotate(-22.9,55.794083,290.67187)"
                 id="circle160" /><circle
                 class="cls-16"
                 cx="55.82"
                 cy="336.66"
                 r="20.75"
                 transform="rotate(-80.86,55.825733,336.67264)"
                 id="circle161" /></g><g
               id="g163"><rect
                 class="cls-7"
                 x="438.69"
                 y="260.26001"
                 width="64.010002"
                 height="108.41"
                 rx="3.73"
                 ry="3.73"
                 id="rect161" /><circle
                 class="cls-16"
                 cx="470.70001"
                 cy="290.72"
                 r="18.07"
                 transform="rotate(-55.58,470.69581,290.71152)"
                 id="circle162" /><circle
                 class="cls-16"
                 cx="470.70001"
                 cy="336.66"
                 r="20.75"
                 transform="rotate(-45,470.69915,336.66003)"
                 id="circle163" /></g><g
               id="g165"><rect
                 class="cls-7"
                 x="360.01999"
                 y="259.16"
                 width="45.34"
                 height="76.779999"
                 rx="3.73"
                 ry="3.73"
                 id="rect163" /><circle
                 class="cls-16"
                 cx="382.69"
                 cy="280.73001"
                 r="12.8"
                 id="circle164" /><circle
                 class="cls-16"
                 cx="382.69"
                 cy="313.28"
                 r="14.7"
                 id="circle165" /></g></g><g
             id="g179"><g
               id="g167"><path
                 class="cls-7"
                 d="m 337.44,288.46 6.72,-18.1 -10.83,2.06 c 0,0 -9.46,8.78 -13.3,13.3 -3.84,4.52 -7.27,8.36 -6.03,13.44 1.23,5.07 12.07,25.09 12.07,25.09 0,0 2.81,0.32 4.75,0.41 -0.68,-6.93 -4.06,-24.54 -4.06,-24.54 l 10.69,-11.65 z"
                 id="path166" /><path
                 class="cls-10"
                 d="m 321.67,327.12 c 0,0 3.7,0 9.19,0.14 0.11,-0.35 0.08,-1.29 -0.05,-2.61 -1.93,-0.09 -4.75,-0.41 -4.75,-0.41 z"
                 id="path167" /></g><path
               class="cls-5"
               d="m 347.31,255.41 3.84,1.51 2.33,9.05 c 0,0 0.96,0.69 2.47,-0.27 1.51,-0.96 2.33,-8.91 2.61,-11.65 0.27,-2.74 -8.09,-7.27 -8.09,-7.27 l -3.15,8.64 z"
               id="path168" /><path
               class="cls-7"
               d="m 353.21,269.4 c 0,0 4.11,7.13 1.78,14.4 -2.33,7.27 -8.23,16.86 -8.23,16.86 0,0 11.38,24.95 11.24,26.19 -3.15,1.23 -7.54,1.23 -7.54,1.23 l 3.02,-3.15 c 0,0 -19.8,-15.99 -19.47,-24 0.41,-10.01 4.8,-27.83 4.8,-27.83 z"
               id="path169" /><path
               class="cls-7"
               d="m 343.74,254.73 c 0,0 2.88,1.51 3.84,1.65 3.43,-2.19 4.52,-10.15 4.52,-10.15 0,0 -11.11,-6.86 -20.02,-4.94 -8.91,1.92 -14.26,8.91 -14.26,8.91 0,0 -1.68,1.9 -3.34,4.98 l 7.72,7.36 7.13,6.03 c 0,0 0.27,2.06 0.55,6.86 3.98,0.27 14.12,0 24.82,-5.21 -0.96,-5.48 -10.97,-15.49 -10.97,-15.49 z"
               id="path170" /><path
               class="cls-5"
               d="m 322.56,235.09 7.99,8.43 c 0,0 0.98,2.83 -2.75,4.18 -3.15,1.14 -4.71,-0.32 -4.71,-0.32 l -3.13,-10.61 2.6,-1.67 z"
               id="path171" /><path
               class="cls-13"
               d="m 316.48,273.94 c 0,0 1.88,-4.54 4.13,-4.29 2.25,0.25 4.25,3.86 6.13,2.36 1.87,-1.5 4.73,-7 7.89,-6.18 1.82,2.25 -0.2,2.66 -1.58,3.67 -1.39,1.02 -2.51,2.97 -2.36,4.05 10.11,-5.09 27.78,-12.58 27.78,-12.58 l -0.31,-2.31 c 0,0 5.76,-2.43 6.36,-2.1 0.6,0.33 1.8,5.15 1.8,5.15 l -36.06,15.77 c 0,0 -1.25,1 -0.06,2.64 1.19,1.64 3.58,0.9 3.92,1.41 0.34,0.51 0.49,1.59 -1.07,2.36 -1.56,0.76 -5.62,-0.63 -6.96,-0.31 -1.34,0.32 -1.77,3.28 -4.26,4.31 -2.49,1.03 -8.21,-3.46 -5.33,-13.95 z"
               id="path172" /><path
               class="cls-5"
               d="m 310.57,261.68 c 0,0 -3.81,6.37 -3.99,11.1 2.48,1.74 5.01,3.41 7.69,4.81 2.66,1.39 5.84,1.97 8.72,2.82 0.13,0.04 0.27,0.08 0.4,0.05 0.14,-0.03 0.25,-0.13 0.35,-0.22 0.22,-0.2 0.43,-0.4 0.65,-0.6 0.2,-0.19 0.41,-0.38 0.52,-0.63 0.24,-0.54 -0.04,-1.22 -0.55,-1.51 -0.51,-0.3 -1.17,-0.25 -1.69,0.01 -0.07,0.04 -0.15,0.08 -0.23,0.07 -0.06,0 -0.11,-0.04 -0.16,-0.08 -1.58,-1.12 -3.08,-2.37 -4.45,-3.74 -0.37,-0.36 -2.8,-2.47 -2.55,-3.03 0.07,-0.15 2.72,-6.17 2.72,-6.17 l -7.42,-2.86 z"
               id="path173" /><path
               class="cls-7"
               d="m 307.43,262.93 c 3.05,3.28 10.13,4.66 10.13,4.66 l 3.98,-6.88 -0.18,-13.99 c -9.05,6.31 -11.7,12.43 -13.92,16.2 z"
               id="path174" /><path
               class="cls-5"
               d="m 350.6,264.33 c 0,0 0.55,3.15 1.65,3.57 1.1,0.41 3.43,-0.69 3.43,-0.69 l -1.65,-4.39 c 0,0 -3.56,-0.27 -3.43,1.51 z"
               id="path175" /><path
               class="cls-10"
               d="m 333.46,251.71 c -0.3,6.21 -0.82,13.98 0.27,15.07 1.1,1.09 1.92,0.16 2.33,-3.11 0.41,-3.26 0.27,-12.12 0.14,-15.84 -0.14,-3.73 -1.78,-7.77 -1.78,-7.77 l -2.74,0.47 c 0,0 2.06,5.59 1.78,11.18 z"
               id="path176" /><path
               class="cls-5"
               d="m 317.7,229.27 c 0,0 -2.61,2.06 -2.47,8.09 1.1,1.37 6.17,0.96 6.17,0.96 0,0 1.1,-1.1 1.92,-2.88 0.82,-1.78 0,-6.44 -5.62,-6.17 z"
               id="path177" /><path
               class="cls-10"
               d="m 322.08,237.33 c -0.04,0.13 -0.07,0.24 0.04,0.33 1.39,-0.41 3.31,-2.65 3.79,-4.02 1.15,-3.25 -1.73,-9.08 -5.61,-6.06 -2.49,-2.22 -6.78,0.8 -7.75,3.1 1.03,0.57 2.05,1.14 3.08,1.71 l 2.07,-3.12 c 0,0 2.32,0.5 1.64,4.2 l 1.92,0.96 c 0,0 1.91,-0.52 0.82,2.89 z"
               id="path178" /><path
               class="cls-10"
               d="m 358,326.85 c 0.02,-0.21 -0.31,-1.16 -0.86,-2.55 -1.5,0.59 -2.81,0.78 -3.81,0.79 l -2.87,3 2.85,-0.18 c 1.45,-0.16 3.21,-0.47 4.69,-1.05 z"
               id="path179" /></g><g
             id="g196"><path
               class="cls-12"
               d="m 259.28,283.66 c 0,0 -12.07,7.68 -12.34,8.5 -0.27,0.82 5.76,27.7 5.76,27.7 l -4.36,2.58 9.02,-1.76 -0.55,-15.36 13.99,-12.34 z"
               id="path180" /><polygon
               class="cls-12"
               points="282.04,319.86 284.24,301.76 276.28,296.27 283.41,284.57 298.22,289.69 286.43,319.03 288.59,322.47 "
               id="polygon180" /><line
               class="cls-18"
               x1="292.92001"
               y1="218.03"
               x2="290.91"
               y2="236.13"
               id="line180" /><line
               class="cls-18"
               x1="253.07001"
               y1="231.19"
               x2="265.5"
               y2="221.14"
               id="line181" /><path
               class="cls-15"
               d="m 284.37,254.04 5.35,-5.9 2.33,-13.71 -1.78,-1.1 0.55,-0.96 c 0,0 -0.41,-2.19 1.1,-2.19 1.51,0 2.33,1.65 1.37,3.56 3.7,9.6 5.62,21.39 -2.19,26.05 l -6.72,-5.76 z"
               id="path181" /><path
               class="cls-15"
               d="m 254.76,254.87 -3.56,-3.43 2.19,-17.82 c 0,0 1.37,-0.27 1.78,-0.82 0,0 0.14,-4.11 -2.47,-3.15 -2.61,0.96 -0.82,2.88 -0.82,2.88 0,0 -6.17,8.62 -8.64,13.3 -2.74,5.21 0.55,13.85 7.13,17.41 l 4.39,-8.36 z"
               id="path182" /><path
               class="cls-10"
               d="m 267.78,246.36 c 0,0 -4.48,2.56 -4.02,3.56 0.46,1.01 2.38,0.91 5.94,-1.83 3.56,-2.74 4.41,-3.1 4.41,-3.1 z"
               id="path183" /><path
               class="cls-15"
               d="m 268.06,246.28 c 0.07,1.9 1.3,3.95 3.14,4.12 2.77,0.26 3.58,-3.33 2.92,-5.4 -0.8,-2.48 -3.88,-3.09 -5.47,-0.92 -0.44,0.6 -0.62,1.38 -0.58,2.2 z"
               id="path184" /><path
               class="cls-15"
               d="m 270.39,248.7 -3.15,10.83 c 0,0 2.47,1.92 4.8,1.51 2.33,-0.41 3.15,-1.37 3.15,-1.37 l -3.02,-11.24 z"
               id="path185" /><path
               class="cls-4"
               d="m 254.07,253.49 13.85,4.25 c 0,0 0.27,1.65 3.43,1.78 2.48,0.11 3.56,-1.1 3.56,-1.1 l 10.69,-6.31 c 0,0 6.86,6.31 7.13,7.13 -3.29,5.9 -9.46,10.01 -9.46,10.01 l 3.43,14.53 c 0,0 -7.13,3.98 -16.04,5.35 -8.91,1.37 -15.91,-4.39 -15.91,-4.39 l 2.74,-14.26 -8.64,-6.72 c 0,0 1.37,-6.44 5.21,-10.28 z"
               id="path186" /><path
               class="cls-10"
               d="m 267.78,246.36 6.58,-1.92 c 0,0 -1.08,-2.93 -4.2,-2.29 -2.65,0.55 -3.02,3.02 -2.38,4.2 z"
               id="path187" /><polygon
               class="cls-10"
               points="283.41,284.57 298.22,283.66 299.32,297.74 283.23,299.2 "
               id="polygon187" /><path
               class="cls-10"
               d="m 240.27,286.4 18.1,0.37 -2.19,22.85 c 0,0 -13.53,1.65 -18.28,-2.74 l 2.38,-20.48 z"
               id="path188" /><polygon
               class="cls-10"
               points="256.36,281.65 255.99,295.18 270.25,295.36 269.7,281.47 "
               id="polygon188" /><polygon
               class="cls-10"
               points="271.35,281.65 270.43,294.81 284.69,294.99 284.69,281.47 "
               id="polygon189" /><path
               class="cls-16"
               d="m 294.75,269.53 c 0.45,2.89 -3.59,5.93 -9.03,6.78 -5.44,0.85 -10.21,-0.81 -10.66,-3.7 -0.45,-2.89 3.59,-5.93 9.03,-6.78 5.44,-0.85 10.21,0.81 10.66,3.7 z"
               id="path189" /><path
               class="cls-16"
               d="m 270.06,274.33 c -0.96,2.76 -5.96,3.54 -11.15,1.72 -5.2,-1.81 -8.63,-5.52 -7.66,-8.29 0.96,-2.76 5.96,-3.54 11.15,-1.72 5.2,1.81 8.63,5.52 7.66,8.29 z"
               id="path190" /><path
               class="cls-16"
               d="m 254.49,274.9 c -0.54,3.24 -5.91,5.04 -12,4.02 -6.09,-1.02 -10.58,-4.47 -10.04,-7.7 0.54,-3.24 5.91,-5.04 12,-4.02 6.09,1.02 10.58,4.47 10.04,7.7 z"
               id="path191" /><polygon
               class="cls-12"
               points="297.93,316 292.31,322.48 293.04,323.12 297.88,317.56 297.67,322.78 298.65,322.82 298.88,316.82 304.55,323.66 305.3,323.04 298.93,315.36 300.66,270.35 299.69,270.31 "
               id="polygon191" /><polygon
               class="cls-12"
               points="241.17,315.41 235.51,321.91 236.25,322.55 241.1,316.97 240.88,322.21 241.85,322.25 242.11,316.28 247.76,323.09 248.51,322.47 242.17,314.83 243.93,273.06 242.95,273.02 "
               id="polygon192" /><path
               class="cls-16"
               d="m 289.93,276 18.46,-1.1 c -2.01,-1.83 -7.88,-1.66 -9.14,-1.46 -4.57,0.73 -9.32,2.56 -9.32,2.56 z"
               id="path192" /><path
               class="cls-12"
               d="m 295.06,322.67 -5.99,-7.26 1.92,-28.4 2.71,5.83 c 0.08,0.18 0.26,0.28 0.44,0.28 0.07,0 0.14,-0.01 0.21,-0.05 0.24,-0.11 0.35,-0.4 0.24,-0.65 l -3.45,-7.44 0.02,-0.37 c 0.02,-0.26 -0.18,-0.49 -0.43,-0.51 l -5.64,-12.16 c -0.11,-0.24 -0.4,-0.35 -0.65,-0.24 -0.24,0.11 -0.35,0.4 -0.24,0.65 l 5.95,12.81 -2.05,30.35 -7.8,6.91 c -0.2,0.18 -0.22,0.49 -0.04,0.69 0.18,0.2 0.49,0.22 0.69,0.04 l 7.06,-6.26 -0.37,5.49 c -0.02,0.27 0.18,0.5 0.45,0.52 0.01,0 0.02,0 0.03,0 0.25,0 0.47,-0.2 0.49,-0.45 l 0.38,-5.65 5.34,6.47 c 0.1,0.12 0.24,0.18 0.38,0.18 0.11,0 0.22,-0.04 0.31,-0.11 0.21,-0.17 0.24,-0.48 0.07,-0.69 z"
               id="path193" /><path
               class="cls-12"
               d="m 263.12,322.61 -7.6,-7.12 -1.21,-30.4 6.3,-12.64 c 0.12,-0.24 0.02,-0.53 -0.22,-0.65 -0.24,-0.12 -0.53,-0.02 -0.65,0.22 l -5.98,12 c -0.26,0.02 -0.46,0.24 -0.45,0.5 v 0.37 c 0,0 -3.64,7.34 -3.64,7.34 -0.12,0.24 -0.02,0.53 0.22,0.65 0.07,0.03 0.14,0.05 0.2,0.05 0.18,0 0.36,-0.09 0.45,-0.27 l 2.87,-5.75 1.14,28.44 -6.19,7.1 c -0.18,0.2 -0.16,0.51 0.05,0.69 0.09,0.08 0.2,0.12 0.31,0.12 0.14,0 0.28,-0.05 0.38,-0.17 l 5.51,-6.32 0.23,5.65 c 0,0.26 0.22,0.46 0.47,0.47 0.01,0 0.02,0 0.03,0 0.27,-0.01 0.48,-0.24 0.47,-0.51 l -0.22,-5.5 6.88,6.45 c 0.2,0.18 0.51,0.17 0.69,-0.02 0.18,-0.2 0.17,-0.51 -0.02,-0.69 z"
               id="path194" /><g
               id="g195"><circle
                 class="cls-2"
                 cx="269.25"
                 cy="304.04001"
                 r="17.200001"
                 transform="rotate(-22.25,269.2944,304.08542)"
                 id="circle194" /><circle
                 class="cls-16"
                 cx="269.25"
                 cy="304.04001"
                 r="15.75"
                 transform="rotate(-22.27,269.30281,304.08015)"
                 id="circle195" /></g></g><g
             id="g209"><polygon
               class="cls-1"
               points="216.14,257.24 227.02,268.58 231.49,263.37 224.73,251.85 "
               id="polygon196" /><path
               class="cls-3"
               d="m 208.82,223.6 c 0,0 2.61,2.06 2.47,8.09 -1.1,1.37 -6.17,0.96 -6.17,0.96 0,0 -1.1,-1.1 -1.92,-2.88 -0.82,-1.78 0,-6.44 5.62,-6.17 z"
               id="path196" /><path
               class="cls-13"
               d="m 216.32,258.7 10.15,-6.67 c 0,0 -7.68,-8.41 -10.33,-9.6 -2.65,-1.19 -6.31,-1.83 -10.6,-1.65 -3.63,0.15 -10.26,2.27 -13.22,3.64 3.96,1.11 6.16,5.19 6.09,7.42 -0.09,2.83 -2.38,7.13 -4.2,9.42 -0.37,-0.09 -2.1,-0.64 -2.1,-0.64 0,0 -1.19,3.02 -4.2,11.15 5.21,2.38 18.37,1.46 24.95,-2.01 -0.64,-1.92 -1.28,-8.68 -1.28,-8.68 l 0.91,-6.95 3.84,4.57 z"
               id="path197" /><path
               class="cls-7"
               d="m 204.53,223.24 c -2.56,1.37 -3.2,3.84 -2.65,5.58 0.55,1.74 3.24,3.84 3.24,3.84 0,0 0.14,-0.58 0.18,-1.47 -0.44,-0.04 -1.19,-0.25 -1.32,-1.28 -0.12,-0.96 0.58,-1.32 1.08,-1.47 -0.07,-0.3 -0.15,-0.6 -0.26,-0.91 l 1.55,-0.82 c 0,0 2.65,-1.55 3.84,-2.56 -1.37,-1.46 -3.11,-2.29 -5.67,-0.91 z"
               id="path198" /><path
               class="cls-3"
               d="m 205.3,231.19 -3.51,11.06 c 0,0 2.01,2.65 4.3,2.56 2.29,-0.09 3.47,-1.92 3.47,-1.92 l -1.19,-11.33 z"
               id="path199" /><g
               id="g201"><path
                 class="cls-4"
                 d="m 222.35,324.15 c 0,0 4.57,-15.45 5.67,-21.21 1.1,-5.76 0,-11.97 -3.93,-18.28 -3.93,-6.31 -12.71,-16.18 -12.71,-16.18 l -8.23,2.01 2.83,19.65 c 0,0 9.87,9.05 10.42,9.51 0.47,7.28 1.02,19.91 2.17,25.48 1.06,-0.23 2.74,-0.61 3.87,-0.91 l -0.09,-0.06 z"
                 id="path200" /><path
                 class="cls-7"
                 d="m 226.92,327.35 -4.48,-3.13 c -1.13,0.31 -2.81,0.68 -3.87,0.91 0.18,0.86 0.37,1.56 0.58,2.04 z"
                 id="path201" /></g><path
               class="cls-10"
               d="m 205.17,267.02 28.25,-15.36 -0.18,-2.29 c 0,0 7.77,-1.92 8.32,-2.01 0.55,-0.09 0.55,3.56 0.55,3.56 l -35.38,19.56 -1.55,-3.47 z"
               id="path202" /><path
               class="cls-4"
               d="m 189.08,271.14 c 0,0 -1.83,1.83 0.27,11.06 2.1,9.23 3.56,13.44 4.48,16.73 0,0 -7.68,23.58 -6.03,29.89 6.12,0.18 7.77,-0.27 7.77,-0.27 l -3.29,-2.19 c 0,0 11.88,-18.28 13.99,-22.12 2.11,-3.84 1.28,-16.64 1.1,-20.38 -0.18,-3.75 -1.46,-12.34 -1.46,-12.34 l -16.82,-0.37 z"
               id="path203" /><path
               class="cls-7"
               d="m 187.58,326.9 c 0.02,0.74 0.08,1.39 0.22,1.91 6.12,0.18 7.77,-0.27 7.77,-0.27 l -3.21,-2.14 -4.78,0.51 z"
               id="path204" /><path
               class="cls-10"
               d="m 188.62,266.26 c 1.85,-1.63 4.5,-2.4 7.22,-1.97 1.09,0.17 2.16,0.5 3.26,0.46 5.04,-0.2 6.49,-6 10.82,-7.5 2.38,-0.82 4.02,0.91 2.93,2.01 -1.09,1.1 -3.29,1.1 -4.02,3.29 -0.73,2.19 -1.46,4.57 0.37,7.31 1.83,2.74 5.48,2.29 6.03,2.93 0.55,0.64 0.64,2.19 -2.74,2.29 -3.38,0.09 -5.03,0.46 -6.4,2.56 -1.37,2.1 -5.12,6.76 -12.07,5.48 -0.71,-0.13 -1.4,-0.37 -2.05,-0.7 -3.71,-1.88 -6.01,-6.41 -5.93,-10.49 0.05,-2.35 1.04,-4.3 2.59,-5.66 z"
               id="path205" /><path
               class="cls-3"
               d="m 185.52,253.68 c 0,0 -1.55,3.38 -2.65,6.12 -1.1,2.74 -3.11,8.96 2.38,12.71 5.48,3.75 12.34,4.39 12.34,4.39 0,0 2.65,1.46 4.11,1.28 1.46,-0.18 1.83,-3.11 1.83,-3.11 h -1.01 c 0,0 0.18,-1.01 -0.55,-1.1 -0.73,-0.09 -2.83,0.37 -2.83,0.37 0,0 -6.95,-6.95 -7.4,-7.59 -0.46,-0.64 2.01,-6.76 2.01,-6.76 z"
               id="path206" /><path
               class="cls-13"
               d="m 198.4,251.85 c 0.07,-2.23 -2.13,-6.31 -6.09,-7.42 -0.54,0.25 -0.97,0.48 -1.22,0.66 -1.65,1.19 -7.95,7.22 -7.95,7.22 2.56,4.75 8.96,8.32 8.96,8.32 0,0 1.74,0.55 2.1,0.64 1.83,-2.29 4.11,-6.58 4.2,-9.42 z"
               id="path207" /><path
               class="cls-7"
               d="m 209.83,240.51 c 0,0 1.37,15.63 1.83,17.37 0.46,1.74 2.1,1.1 2.01,-1.46 -0.09,-2.56 -1.37,-15.45 -1.37,-15.45 0,0 -1.83,-0.46 -2.47,-0.46 z"
               id="path208" /><path
               class="cls-3"
               d="m 225.83,263.55 2.83,-4.75 c 0,0 -0.73,-1.01 0.18,-2.01 -0.27,-0.82 -1.19,-1.74 -1.19,-1.74 0.64,-0.37 1.28,-1.46 2.65,-1.37 l 1.92,1.92 c 0.46,4.39 1.37,10.69 -2.19,13.89 -1.1,0.91 -3.2,-0.73 -4.94,-3.02 0,0 -0.46,-1.01 0.73,-2.93 z"
               id="path209" /></g></g><g
           class="cls-17"
           clip-path="url(#clippath-2)"
           id="g271"><g
             id="g270"><g
               id="g216"><polygon
                 class="cls-15"
                 points="273.49,431.19 290.48,460.74 309.8,456.15 292.77,420.46 "
                 id="polygon210" /><path
                 class="cls-5"
                 d="m 252.45,356.2 c -0.12,0.36 -0.27,0.73 -0.57,0.97 -0.31,0.26 -0.74,0.32 -1.15,0.36 -3.06,0.3 -6.13,-0.12 -9.17,-0.53 -0.43,-0.06 -0.88,-0.12 -1.23,-0.37 -0.31,-0.22 -0.52,-0.55 -0.72,-0.88 -1.32,-2.18 -2.59,-4.43 -3.31,-6.87 -0.71,-2.45 -0.84,-5.14 0.11,-7.51 2.02,-5.05 9.11,-6.37 12.73,-2.37 4.05,4.46 5.25,11.6 3.31,17.21 z"
                 id="path210" /><path
                 class="cls-5"
                 d="m 245.57,354.15 4.31,24.49 c 0,0 -10.8,-1.29 -16.14,-4.32 4.39,-15.37 6.19,-23.02 6.19,-23.02 z"
                 id="path211" /><path
                 class="cls-5"
                 d="m 271.21,353.88 c 2.45,-13.82 5.14,-27.55 7.91,-41.3 0,0 -2.45,-2.57 -2.49,-3.95 -0.04,-1.38 1.49,-2.87 1.49,-2.87 0,0 -1.47,-3.83 1.54,-4.85 3.01,-1.02 10.88,1.74 6.48,10.74 7.16,27.05 9.08,50.35 1,58.84 -2.84,2.98 -6.46,3.77 -10.35,4.94 -1.63,0.49 -5.99,3.22 -7.4,1.34 -0.42,-0.56 -0.56,-1.26 -0.65,-1.93 -0.48,-3.57 0.1,-7.09 0.68,-10.55 0.58,-3.48 1.18,-6.95 1.8,-10.42 z"
                 id="path212" /><g
                 id="g214"><path
                   class="cls-4"
                   d="m 205.35,385.64 c 3.5,-2.23 7.23,-4.12 11.58,-5.74 8.19,-3.05 16.72,-5.14 25.35,-6.48 4.61,-0.72 10.23,-0.38 14.34,-2.78 3.57,-2.08 6.45,-5.98 8.32,-9.56 0.36,-0.68 3.93,-8.75 4.71,-8.47 6.77,2.55 13.53,5.19 20.45,7.34 4.95,1.54 3.44,2.58 1.85,7.17 -1.13,3.24 -2.21,6.5 -3.38,9.74 -1.81,5.21 -3.64,10.48 -6.63,15.12 -3.22,5.01 -4.88,6.98 -10.33,9.1 1.31,5.42 3.72,13.33 5.16,18.79 3.91,14.82 3.78,28.78 5.8,43.96 -57.85,-9.92 -70.69,-12.06 -70.69,-12.06 0,0 -2.27,-34.35 -2.33,-35.23 -0.04,-0.58 -6.53,5.32 -6.89,5.74 -2.75,3.27 -5.18,6.81 -7.24,10.55 -6.59,-5.28 -12.78,-11.07 -18.49,-17.29 -2.03,-2.21 15.44,-19.73 17.44,-21.48 3.7,-3.24 7.2,-6.03 10.96,-8.43 z"
                   id="path213" /><path
                   class="cls-4"
                   d="m 228.07,378.77 v -5.98 c 0,0 17.49,-4.8 21.6,-4.11 l 0.44,6.3 -22.05,3.79 z"
                   id="path214" /></g><path
                 class="cls-7"
                 d="m 245.53,343.43 0.49,8.35 c -3.19,-3.68 -4.42,-1.23 -4.18,0.74 0.25,1.96 3.44,3.44 5.65,3.19 l -0.74,1.72 c 0,0 -4.24,0.31 -7.16,-1.69 -2.91,-2 -3.16,-6.66 -3.4,-8.38 -0.25,-1.72 9.33,-3.93 9.33,-3.93 z"
                 id="path215" /><path
                 class="cls-13"
                 d="m 236.3,348.87 28.14,-13.79 c -2.95,-1.47 -10.72,0.69 -15.3,3.9 -5.08,-10.04 -19.13,-1.87 -12.84,9.88 z"
                 id="path216" /></g><g
               id="g224"><path
                 class="cls-5"
                 d="m 308.48,359.76 c 0,0 4.2,-23.6 11,-41.8 l -2.84,-4.98 2.45,1.47 c -0.6,-3.52 -0.24,-5.66 -0.24,-5.66 l 2.05,5.68 0.26,-6.82 1.53,6.95 0.95,-6.02 0.41,7.85 3,-0.33 -2.59,2.1 c 0,0 -0.05,34.21 0.29,39.99 l 0.07,2.07 -16.33,-0.49 z"
                 id="path217" /><path
                 class="cls-5"
                 d="m 380.99,365.8 c 0,0 0.43,-23.97 -2.72,-43.16 l 3.75,-4.33 -2.69,0.97 c 1.27,-3.33 1.33,-5.51 1.33,-5.51 l -3.1,5.17 1.06,-6.75 -2.85,6.52 0.23,-6.09 -1.91,7.62 -2.88,-0.91 2.14,2.57 c 0,0 -6.55,33.57 -8,39.17 l -0.47,2.02 z"
                 id="path218" /><path
                 class="cls-7"
                 d="m 319.05,452.62 c -0.11,1.6 1.93,51.23 1.93,51.23 l 28.2,1.97 4.42,-29.46 15.42,32.86 24.29,1.7 -12.45,-58.4 z"
                 id="path219" /><g
                 id="g223"><path
                   class="cls-15"
                   d="m 335.5,354.52 c 0,0 -2.24,-0.56 -2.01,1.71 0.3,2.97 2.77,2.34 2.77,2.34 l -0.76,-4.06 z"
                   id="path220" /><path
                   class="cls-15"
                   d="m 349.57,353.18 c 0.14,4.67 -2.94,8.57 -6.88,8.71 -3.94,0.14 -7.25,-3.54 -7.39,-8.21 -0.14,-4.67 2.94,-8.57 6.88,-8.71 3.94,-0.14 7.25,3.54 7.39,8.21 z"
                   id="path221" /><polygon
                   class="cls-15"
                   points="340,358.52 333,380.57 351.23,381.27 345.28,358.5 "
                   id="polygon221" /><path
                   class="cls-15"
                   d="m 349.57,353.13 c 0,0 1.87,-0.77 2.33,1.94 0.46,2.71 -1.61,2.87 -1.61,2.87 l -0.73,-4.81 z"
                   id="path222" /><path
                   class="cls-4"
                   d="m 350.24,349.87 c 0.05,0.75 0.08,1.49 0.15,2.18 0.17,1.58 2.35,20.27 3.02,20.19 -7.47,0.88 -14.97,1.46 -22.49,1.73 2,-6.98 3.42,-14.28 4.08,-21.5 0.2,-2.18 0.27,-4.5 1.95,-6.11 1.62,-1.55 3.9,-0.46 5.24,-1.39 1.83,-1.27 4.78,-1.58 6.46,0.08 1.25,1.24 1.48,3.06 1.6,4.83 z"
                   id="path223" /></g><path
                 class="cls-13"
                 d="m 326.23,379.53 c 0,0 18.89,-2.66 34.62,1.91 l 10.5,-51.89 c 0,0 5.38,-3.93 9.29,2.26 1.06,1.68 1.2,24.28 1.22,33.29 0.3,16.96 -3.23,40.18 -3.23,40.18 0,0 6.68,51.17 6.68,51.17 -0.06,-0.46 -7.61,1.88 -15.92,2.51 -16.06,1.21 -25.8,3.02 -39.95,2.84 -1.63,-0.02 -15.34,-1.54 -15.33,-0.27 0,-0.21 -0.25,-47.74 -0.25,-47.74 0,0 -7.78,-16.4 -8.93,-30.38 -1.15,-13.98 9.99,-57.39 9.99,-57.39 0,0 2.55,-2.64 11.44,-0.41 l -0.13,53.93 z"
                 id="path224" /></g><g
               id="g231"><path
                 class="cls-15"
                 d="m 116.83,394.7 c -0.84,-1.35 -1.67,-2.69 -2.49,-3.99 -13.16,5.73 -15.6,17.5 -18.49,29.96 -1.98,8.56 -3.14,17.39 -3.9,26.14 0,0 -2.14,0.18 -2.53,1.69 -0.39,1.51 1.01,3.71 1.01,3.71 l -1.65,2.34 c 0,0 4.76,2.09 7.61,0.12 2.85,-1.97 1.37,-8.15 1.37,-8.15 7.01,-10.88 16.6,-29.83 16.6,-29.83 4.19,-1.99 8.3,-4.04 12.66,-5.27 -1.88,-5.88 -6.91,-11.49 -10.18,-16.73 z"
                 id="path225" /><path
                 class="cls-15"
                 d="m 156.61,345.58 c -8.34,-4.34 -8.57,-20.17 3.33,-16.25 10.51,3.46 7.55,21.91 -3.33,16.25 z"
                 id="path226" /><path
                 class="cls-15"
                 d="m 156.1,340.47 -3.34,26.92 c 0,0 9.28,2.96 15.64,-1.86 -5.18,-16.13 -7.24,-22.94 -7.24,-22.94 l -5.06,-2.11 z"
                 id="path227" /><path
                 class="cls-4"
                 d="m 209.84,435.47 -61.8,15.72 1.07,35.09 2.02,26.84 44.49,2.82 -3.54,-29.98 -2.4,-16.89 17.2,18.99 2.82,24.5 30.41,1.69 4.5,-27.87 c -3.75,-25.49 -34.77,-50.89 -34.77,-50.89 z"
                 id="path228" /><path
                 class="cls-15"
                 d="m 203.73,365.38 7.34,-0.5 2.23,-34.29 -1.94,-3.46 2.21,-1.4 c 0,0 -0.06,-4.27 1.77,-4.47 1.84,-0.2 5.13,0.9 5.53,4.57 0.4,3.68 -1.23,5.72 -1.23,5.72 0,0 8.32,19.96 8.39,34.89 0.07,14.93 -18.94,22.69 -18.94,22.69 l -5.37,-23.75 z"
                 id="path229" /><path
                 class="cls-16"
                 d="m 202.35,394.78 c 3.73,-1.11 7.48,-2.38 10.88,-4.25 1.2,-0.66 -5.25,-25.37 -6.05,-27.87 -8.07,-0.47 -16.14,-0.75 -24.22,-0.83 -9.18,-0.1 -18.43,0.06 -27.45,1.76 -12.4,2.34 -22.04,9.36 -32.05,16.64 -5.16,3.75 -10.56,7.12 -15.59,11.13 -1.08,0.86 11.27,23.56 12.35,25.66 6.26,-1.92 12.46,-4.03 18.59,-6.32 -0.68,0.25 7.59,39.15 8.52,43.07 0.06,0.27 0.14,0.57 0.37,0.73 0.24,0.16 0.55,0.12 0.84,0.08 7.53,-1.18 14.82,-2.37 22.08,-4.42 7.88,-2.22 16.74,-2.04 24.35,-5.33 2.63,-1.13 5.66,-1.04 8.39,-2.01 3.51,-1.25 6.96,-2.66 10.35,-4.19 0.35,-0.16 -5.88,-21.79 -6.66,-23.68 -2.63,-6.44 -4.47,-12.89 -6.39,-19.67 0.56,-0.16 1.13,-0.33 1.69,-0.5 z"
                 id="path230" /><path
                 class="cls-10"
                 d="m 153.92,323.37 c 0.44,1.02 0.88,2.05 1.32,3.07 -2.17,-0.79 -4.43,-1.32 -6.72,-1.59 l 2.74,2.92 c -2,0.08 -3.99,0.52 -5.83,1.31 1.23,0.17 2.39,0.77 3.24,1.67 -2.43,0.41 -4.84,0.87 -7.25,1.38 1.64,1.01 3.22,2.13 4.72,3.35 -0.39,-0.35 -2.63,0.23 -3.03,0.41 0.45,2.36 3.63,5.06 5.47,6.49 1.58,1.23 3.44,2.23 5.42,2.62 0.86,0.17 4.8,-0.63 5.26,-0.02 -0.96,-1.28 -8.42,-10.85 -2.06,-9.63 1.4,0.27 2.23,1.37 3.39,1.98 -0.18,-1.17 -0.63,-2.34 -0.98,-3.48 -0.05,-0.15 -0.09,-0.31 -0.05,-0.46 0.04,-0.17 0.18,-0.29 0.31,-0.41 0.81,-0.71 1.62,-1.42 2.43,-2.12 0.17,-0.15 0.35,-0.32 0.36,-0.54 0,-0.17 -0.08,-0.32 -0.18,-0.46 -2.04,-3 -5.24,-5.1 -8.56,-6.49 z"
                 id="path231" /></g><g
               id="g237"><polygon
                 class="cls-15"
                 points="77.61,350.96 69.52,374.52 89.54,375.66 83.41,351.06 "
                 id="polygon231" /><path
                 class="cls-9"
                 d="m 53.48,449.42 c -1.34,17.63 -2.68,35.26 -4.02,52.89 7.81,0.04 15.62,0.08 23.42,0.12 0.86,0 1.78,0 2.51,-0.48 1.01,-0.66 6.23,-0.68 6.53,-1.89 1.85,-7.61 2.79,-9.51 4.64,-17.12 4.62,7.42 5.31,7.82 9.94,15.24 0.53,0.85 1.09,1.74 1.93,2.25 0.95,0.57 2.09,0.58 3.18,0.56 9.01,-0.15 18.02,-1.01 26.91,-2.58 -1.94,-15.73 -4.01,-31.45 -6.2,-47.15 -0.07,-0.48 -1.45,-0.48 -0.99,-0.42 z"
                 id="path232" /><path
                 class="cls-15"
                 d="m 118.26,358.06 c 0,0 0.85,-24.12 -2.08,-43.5 l 3.93,-4.28 -2.78,0.92 c 1.36,-3.33 1.46,-5.52 1.46,-5.52 l -3.28,5.15 1.2,-6.77 -3.04,6.5 0.34,-6.12 -2.1,7.63 -2.94,-0.98 2.15,2.63 c 0,0 -7.3,33.66 -8.88,39.27 l -0.51,2.02 z"
                 id="path233" /><path
                 class="cls-4"
                 d="m 64.56,374.34 c 1.5,-0.42 3.01,-0.76 4.53,-1.02 8.35,-1.39 17.14,-1.47 25.56,-1.78 0.24,0 0.5,-0.02 0.69,-0.17 0.17,-0.13 0.25,-0.35 0.33,-0.55 0.62,-1.72 5.66,-19.18 6.04,-19.18 0.03,0 14.02,-0.21 16.79,8.32 0.03,16.18 -3.79,38.24 -3.79,38.24 2.25,17.82 7.41,42.6 10.36,60.29 -26.44,6.88 -54.6,22.86 -77.77,8.38 -2.85,-1.78 -0.1,-57.58 0.36,-62.07 0.8,-7.95 -2.52,-15.89 2.65,-21.97 3.64,-4.28 8.78,-6.96 14.23,-8.51 z"
                 id="path234" /><path
                 class="cls-15"
                 d="m 90.05,353.02 c -0.05,0.33 -0.12,0.67 -0.36,0.9 -0.33,0.31 -0.84,0.27 -1.28,0.21 -3.43,-0.45 -6.86,-0.91 -10.28,-1.36 -0.42,-0.06 -0.87,-0.13 -1.18,-0.42 -0.22,-0.21 -0.33,-0.5 -0.43,-0.78 -0.66,-1.77 -1.31,-3.55 -1.97,-5.32 -1.19,-3.22 -2.32,-7.18 0.6,-9.82 2.03,-1.83 5.13,-2.61 7.63,-1.43 5.92,2.79 8.14,12.21 7.26,18.03 z"
                 id="path235" /><path
                 class="cls-10"
                 d="m 88.57,336.66 c 0,0 -0.97,5.93 -3.86,9.23 l -1.1,-3.58 c 0,0 -3.31,1.24 -2.07,3.58 1.24,2.34 2.34,2.07 2.34,2.07 l -3.44,18.18 -18.18,-1.65 c 0,0 3.99,-5.23 6.47,-11.57 0.94,-2.4 1.44,-5.38 1.51,-7.95 0.06,-2.25 -0.38,-4.35 0.64,-6.53 0.97,-2.09 2.89,-3.64 5.19,-2.78 1.4,-2.25 4.13,-3.35 6.72,-3.07 1.45,0.16 6.12,1.95 5.77,4.07 z"
                 id="path236" /><path
                 class="cls-4"
                 d="m 62.3,374.49 c 0,0 -18.19,5.71 -30.68,24.61 l -12.49,18.91 c 0,0 6.78,8.92 12.49,12.49 l 20.33,-13.56 z"
                 id="path237" /></g><g
               id="g241"><polygon
                 class="cls-5"
                 points="460.15,393.38 459.52,365.89 452.17,365.62 438.94,390.73 "
                 id="polygon237" /><polygon
                 class="cls-7"
                 points="404.24,464.41 392.44,508.04 474.09,506.92 472.83,477.33 "
                 id="polygon238" /><path
                 class="cls-5"
                 d="m 401.55,357.72 -1.18,-22.87 2.59,-3.08 -2.36,-2.41 1.14,-3.9 c 0,0 -4.31,-0.95 -6.35,3.04 -2.04,4 -0.96,6.04 -0.96,6.04 l -5.51,25.03 z"
                 id="path238" /><path
                 class="cls-10"
                 d="m 476.97,392.27 c -4.93,-2.93 -10.18,-5.34 -15.6,-7.21 -8.38,-2.89 -17.17,-4.51 -26.01,-5.07 -10.45,-0.67 -20.89,1.87 -31.29,0.66 -0.78,-0.09 -0.27,-8.65 -0.31,-9.46 -0.29,-5.43 -1.16,-21.53 -1.11,-26.97 0.01,-1.22 -12.59,-0.3 -12.73,0.82 -1.35,10.44 -2.41,16.7 -3.42,25.48 -1.91,16.68 -2.41,22.43 -1.05,32.29 1.47,10.66 18.68,13.47 28.35,14.98 l -13.02,48.55 c 0,0 18.93,10.82 45.93,12.17 22.68,1.13 30.16,-1.78 30.16,-1.78 l -0.11,-47.43 c 0,0 10.08,14.68 10.97,18.03 2.89,10.86 5.98,26.93 5.98,26.93 l 16.43,0.36 c 0,0 -1.05,-23.26 -5.21,-46.19 -2.05,-11.32 -7.03,-19.3 -15.47,-26.97 -3.83,-3.48 -8.02,-6.54 -12.47,-9.18 z"
                 id="path239" /><path
                 class="cls-5"
                 d="m 458.71,367.75 -11.01,-0.81 c 0,0 -0.87,-5.37 -0.09,-10.91 0.78,-5.54 4.18,-12.12 11.31,-10.75 7.12,1.37 12.85,13.97 -0.21,22.48 z"
                 id="path240" /><path
                 class="cls-4"
                 d="m 453.11,354.71 c 0,0 3.6,-0.55 2.3,3.59 -1.31,4.15 -4.09,2.52 -4.09,2.52 0.26,4.15 3.41,7.46 7.83,6.5 1.96,-0.42 3.65,-1.65 5.05,-3.08 5.11,-5.21 4.04,-9.85 3.37,-16.29 -0.09,-0.86 2.61,-0.1 2.61,-0.1 l -5.17,-2.77 3.47,-0.19 c 0,0 -5.02,-2.96 -7.21,-2.21 -2.19,0.75 3.11,-1.9 3.11,-1.9 0,0 -6.14,-1.97 -9.26,1.5 -3.12,3.47 -4.58,6.24 -4.58,6.24 l 1.11,3.89 -0.87,4.98 2.33,-2.69 z"
                 id="path241" /></g><g
               id="g247"><polygon
                 class="cls-15"
                 points="316.41,471.72 278.4,503.26 264.89,490.87 303.46,453.7 "
                 id="polygon241" /><path
                 class="cls-15"
                 d="m 352.88,396.16 c 0.19,0.44 0.42,0.89 0.81,1.15 0.42,0.29 0.96,0.32 1.46,0.33 3.84,0.06 7.63,-0.78 11.39,-1.6 0.53,-0.12 1.08,-0.24 1.5,-0.59 0.37,-0.3 0.59,-0.74 0.81,-1.17 1.43,-2.85 2.78,-5.78 3.42,-8.91 0.64,-3.13 0.52,-6.5 -0.9,-9.35 -3.04,-6.1 -12.01,-7.01 -16.12,-1.66 -4.59,5.98 -5.37,15 -2.36,21.8 z"
                 id="path242" /><path
                 class="cls-15"
                 d="m 360.34,392.6 -11.26,26.19 c 0,0 12.39,1.41 19.15,-0.56 -0.84,-18.3 -0.84,-27.31 -0.84,-27.31 l -7.04,1.69 z"
                 id="path243" /><path
                 class="cls-15"
                 d="m 402.85,403.58 5.35,-2.53 -18.02,-39.98 c 0,0 -3.38,-0.56 -4.22,-1.69 -0.84,-1.13 -0.56,-3.38 -0.56,-3.38 0,0 -3.38,-2.25 -1.69,-5.07 1.69,-2.82 9.29,-5.63 11.26,4.79 21.4,18.02 36.6,36.32 35.48,48.71 -1.13,12.39 -17.46,21.12 -17.46,21.12 l -10.14,-21.96 z"
                 id="path244" /><g
                 id="g246"><path
                   class="cls-4"
                   d="m 324.28,430.39 c 3.88,-2.98 7.98,-5.69 12.41,-8.23 21.04,-12.08 44.65,-17.96 68.5,-21.16 3.57,7.52 9.73,15.22 14.02,22.3 0.23,0.38 0.47,0.81 0.4,1.25 -0.07,0.41 -0.35,0.78 -0.71,1 -6.19,3.94 -19.81,11.02 -19.15,12.39 0,0 12.67,19.99 27.03,66.73 -67.29,-0.28 -82.22,-0.28 -82.22,-0.28 l -9.29,-39.42 c 0,0 -19.71,10.7 -21.4,12.11 0,0 -13.23,-23.37 -13.23,-23.37 4.41,-4.86 8.91,-9.65 13.51,-14.34 3.24,-3.29 6.58,-6.25 10.12,-8.97 z"
                   id="path245" /><path
                   class="cls-4"
                   d="m 349.08,418.79 -1.13,-6.76 c 0,0 18.86,-8.73 23.65,-8.73 l 1.69,7.04 z"
                   id="path246" /></g><path
                 class="cls-10"
                 d="m 353.82,372.57 c -2.41,2.96 -1.09,8 2.1,10.09 0.47,0.31 1.01,0.57 1.57,0.53 0.65,-0.04 1.21,-0.46 1.84,-0.6 1.11,-0.25 2.31,0.45 2.82,1.47 0.51,1.02 0.43,2.27 -0.02,3.32 -0.35,0.82 -0.91,1.55 -1.62,2.1 -0.44,0.34 -0.94,0.63 -1.24,1.1 -0.23,0.37 -0.3,0.81 -0.36,1.24 -0.3,2.3 -0.22,4.66 0.24,6.93 2.9,-0.08 5.78,-0.54 8.56,-1.36 0.77,-0.23 1.55,-0.5 2.12,-1.06 0.54,-0.54 0.82,-1.28 1.07,-2 0.65,-1.87 1.24,-3.76 1.75,-5.67 1.11,-4.15 1.87,-8.61 0.56,-12.71 -1.32,-4.09 -5.3,-7.61 -9.57,-7.05 0,0 -5.74,-1.38 -9.84,3.64 z"
                 id="path247" /></g><g
               id="g254"><polygon
                 class="cls-15"
                 points="102.38,474.92 121.86,508.79 144.01,503.54 124.48,462.62 "
                 id="polygon247" /><path
                 class="cls-3"
                 d="m 78.26,388.94 c -0.14,0.41 -0.31,0.84 -0.65,1.11 -0.36,0.29 -0.85,0.36 -1.31,0.41 -3.5,0.34 -7.03,-0.14 -10.52,-0.61 -0.49,-0.07 -1.01,-0.14 -1.41,-0.43 -0.36,-0.25 -0.6,-0.63 -0.82,-1.01 -1.52,-2.5 -2.97,-5.08 -3.79,-7.88 -0.82,-2.81 -0.96,-5.89 0.12,-8.61 2.32,-5.79 10.45,-7.3 14.6,-2.72 4.64,5.11 6.02,13.3 3.79,19.73 z"
                 id="path248" /><path
                 class="cls-3"
                 d="m 70.38,386.59 4.94,28.07 c 0,0 -12.38,-1.48 -18.5,-4.95 5.03,-17.62 7.1,-26.39 7.1,-26.39 l 6.46,3.26 z"
                 id="path249" /><path
                 class="cls-3"
                 d="m 33.64,380.8 c -0.16,-16.09 -0.61,-32.12 -1.14,-48.19 0,0 3.26,-2.45 3.56,-4 0.31,-1.55 -1.14,-3.53 -1.14,-3.53 0,0 2.39,-4.05 -0.83,-5.77 -3.22,-1.72 -12.63,-0.09 -9.36,10.92 -13.21,29.23 -19.78,55.22 -12.25,66.35 2.65,3.91 6.59,5.48 10.78,7.54 1.75,0.86 6.16,4.77 8.12,2.91 0.59,-0.56 0.87,-1.32 1.1,-2.06 1.21,-3.95 1.22,-8.04 1.22,-12.06 0,-4.04 -0.02,-8.08 -0.06,-12.12 z"
                 id="path250" /><g
                 id="g252"><path
                   class="cls-10"
                   d="m 102.11,429.15 c -3.54,-3.18 -7.4,-6.03 -12.01,-8.68 -8.69,-4.99 -17.93,-8.97 -27.44,-12.12 -5.08,-1.68 -11.49,-2.36 -15.69,-5.86 -3.64,-3.03 -6.16,-7.98 -7.6,-12.39 -0.27,-0.84 -2.79,-10.64 -3.73,-10.46 -8.14,1.6 -16.28,3.31 -24.51,4.43 -5.89,0.8 -4.38,2.27 -3.45,7.76 0.66,3.88 1.28,7.77 1.98,11.65 1.06,6.24 2.14,12.54 4.64,18.35 2.7,6.27 4.2,8.81 9.96,12.25 -2.51,5.88 -6.73,14.37 -9.39,20.27 -7.22,16.02 -9.71,31.83 -14.86,48.62 67.29,-0.28 82.22,-0.28 82.22,-0.28 0,0 9.05,-38.41 9.29,-39.4 0.15,-0.65 6.38,7.25 6.7,7.8 2.5,4.21 4.57,8.68 6.19,13.3 8.45,-4.73 16.54,-10.1 24.18,-16.06 2.72,-2.12 -13.73,-25.22 -15.66,-27.59 -3.57,-4.36 -7,-8.17 -10.8,-11.6 z"
                   id="path251" /><path
                   class="cls-10"
                   d="m 77.71,417.1 1.13,-6.76 c 0,0 -18.86,-8.73 -23.65,-8.73 l -1.69,7.04 z"
                   id="path252" /></g><path
                 class="cls-7"
                 d="m 70.33,374.3 0.56,9.57 c -3.66,-4.22 -5.07,-1.41 -4.79,0.84 0.28,2.25 3.94,3.94 6.48,3.66 l -0.84,1.97 c 0,0 -4.86,0.36 -8.2,-1.93 -3.34,-2.29 -3.62,-7.64 -3.9,-9.61 -0.28,-1.97 10.7,-4.5 10.7,-4.5 z"
                 id="path253" /><path
                 class="cls-13"
                 d="m 59.74,380.54 32.27,-15.81 c -3.38,-1.69 -12.28,0.79 -17.55,4.48 -5.82,-11.52 -21.93,-2.14 -14.72,11.33 z"
                 id="path254" /></g><g
               id="g261"><path
                 class="cls-3"
                 d="m 242.08,385.54 c 0,0 -3.4,-0.59 -2.82,2.71 0.75,4.31 4.38,3.14 4.38,3.14 z"
                 id="path255" /><path
                 class="cls-3"
                 d="m 261.72,383.54 c 0.7,6.81 -3.49,12.83 -9.36,13.43 -5.87,0.6 -11.19,-4.43 -11.89,-11.25 -0.7,-6.81 3.49,-12.83 9.36,-13.43 5.87,-0.6 11.19,4.43 11.89,11.25 z"
                 id="path256" /><polygon
                 class="cls-3"
                 points="248,392.32 239.83,425.26 267.14,424.42 255.88,391.76 "
                 id="polygon256" /><path
                 class="cls-3"
                 d="m 206.89,399.36 c 0,0 3.38,-30.97 10.7,-55.19 l -4.22,-6.19 3.38,1.69 c -1.13,-4.5 -0.84,-7.32 -0.84,-7.32 l 3.24,7.18 -0.28,-8.87 2.67,8.87 0.7,-7.88 1.27,10.14 3.94,-0.7 -3.24,2.96 c 0,0 3.1,44.35 4.08,51.81 l 0.28,2.67 -21.68,0.84 z"
                 id="path257" /><path
                 class="cls-3"
                 d="m 303.5,400.62 c 0,0 -1.64,-31.11 -7.6,-55.7 l 4.56,-5.95 -3.47,1.5 c 1.38,-4.43 1.25,-7.26 1.25,-7.26 l -3.63,6.99 0.78,-8.84 -3.17,8.71 -0.26,-7.91 -1.83,10.05 -3.9,-0.92 3.07,3.13 c 0,0 -5.57,44.1 -6.97,51.5 l -0.43,2.66 21.6,2.05 z"
                 id="path258" /><path
                 class="cls-7"
                 d="m 262.31,378.65 c 0.02,1.34 -0.04,2.67 -0.12,4.02 0,-0.13 -1.36,0.22 -1.51,0.45 -0.23,0.36 -0.09,1.03 -0.14,1.43 -0.22,1.69 -0.4,3.4 -0.73,5.07 -0.37,1.87 -0.88,4.08 -2.24,5.51 -3.52,0.99 -11.26,1.13 -11.26,1.13 0,0 -3.8,-1.55 -5.77,-9.57 -1.97,-8.02 0.42,-14.87 9.29,-14.4 2.6,-2.05 6.98,-2.8 9.66,-0.54 1.49,1.26 2.35,3.14 2.66,5.06 0.1,0.61 0.15,1.23 0.16,1.85 z"
                 id="path259" /><path
                 class="cls-3"
                 d="m 260.67,382.89 c 0,0 3.16,-1.37 3.38,1.97 0.28,4.36 -3.52,4.08 -3.52,4.08 z"
                 id="path260" /><path
                 class="cls-10"
                 d="m 232.23,423.39 c 0,0 24.78,-5.16 46.03,-0.66 l 2.53,-32.38 c 0,0 19.01,-1.97 23.79,9.29 1.97,21.96 -0.56,52.37 -0.56,52.37 l 10.98,50.68 -94.32,-0.28 -1.69,-33.51 c 0,0 -11.83,-20.55 -14.64,-38.57 -2.81,-18.02 0.28,-34.63 0.28,-34.63 0,0 16.33,-5.91 26.75,-0.56 l 0.84,28.25 z"
                 id="path261" /></g><g
               id="g265"><polygon
                 class="cls-3"
                 points="478.23,394.07 489.26,426.17 461.98,427.72 470.33,394.2 "
                 id="polygon261" /><path
                 class="cls-3"
                 d="m 423.35,408.34 c 0,0 -1.15,-32.87 2.83,-59.28 l -5.35,-5.83 3.79,1.25 c -1.86,-4.54 -1.99,-7.52 -1.99,-7.52 l 4.47,7.01 -1.64,-9.22 4.14,8.86 -0.46,-8.34 2.86,10.4 4.01,-1.33 -2.94,3.58 c 0,0 9.94,45.87 12.1,53.51 l 0.7,2.75 z"
                 id="path262" /><path
                 class="cls-16"
                 d="m 496.01,425.92 c -2.04,-0.58 -4.11,-1.04 -6.18,-1.39 -11.38,-1.9 -23.36,-2 -34.84,-2.42 -0.33,-0.01 -0.68,-0.03 -0.94,-0.23 -0.23,-0.18 -0.34,-0.47 -0.44,-0.75 -0.85,-2.34 -7.71,-26.13 -8.23,-26.14 -0.05,0 -19.11,-0.28 -22.88,11.34 -0.03,22.05 5.16,52.12 5.16,52.12 l -6.49,51.45 c 0,0 0.59,-0.05 0.62,-0.06 35.04,-3.19 70.51,-5.16 105.19,-9.3 0.12,-10.86 -0.36,-21.72 -1.46,-32.53 -1.09,-10.83 -3.07,-22.21 -10.12,-30.5 -4.96,-5.83 -11.97,-9.49 -19.4,-11.59 z"
                 id="path263" /><path
                 class="cls-3"
                 d="m 461.28,396.88 c 0.07,0.44 0.16,0.92 0.49,1.22 0.45,0.42 1.14,0.36 1.75,0.28 l 14.01,-1.85 c 0.57,-0.08 1.19,-0.17 1.6,-0.57 0.29,-0.28 0.45,-0.68 0.59,-1.07 0.9,-2.42 1.79,-4.84 2.69,-7.25 1.63,-4.39 3.16,-9.79 -0.82,-13.39 -2.76,-2.49 -6.98,-3.56 -10.4,-1.95 -8.07,3.8 -11.09,16.64 -9.9,24.57 z"
                 id="path264" /><path
                 class="cls-7"
                 d="m 463.29,374.58 c 0,0 1.32,8.08 5.26,12.58 l 1.5,-4.88 c 0,0 4.5,1.69 2.82,4.88 -1.69,3.19 -3.19,2.82 -3.19,2.82 l 4.69,24.78 24.78,-2.25 c 0,0 -5.44,-7.13 -8.82,-15.77 -1.28,-3.26 -1.96,-7.33 -2.06,-10.83 -0.08,-3.07 0.51,-5.92 -0.88,-8.9 -1.33,-2.84 -3.94,-4.96 -7.07,-3.79 -1.91,-3.07 -5.63,-4.56 -9.16,-4.18 -1.98,0.21 -8.34,2.66 -7.87,5.55 z"
                 id="path265" /></g><g
               id="g269"><polygon
                 class="cls-3"
                 points="121.76,421.32 119.32,391.67 127.21,390.54 144.29,416.07 "
                 id="polygon265" /><polygon
                 class="cls-14"
                 points="197.6,509.17 117.63,513.11 189.99,491.43 "
                 id="polygon266" /><path
                 class="cls-3"
                 d="m 180.8,376.29 -1.32,-24.75 -3.14,-3.02 2.27,-2.87 -1.67,-4.06 c 0,0 4.53,-1.52 7.18,2.56 2.65,4.07 1.72,6.39 1.72,6.39 l 8.76,26.31 z"
                 id="path266" /><path
                 class="cls-7"
                 d="m 103.53,422.04 c 4.98,-3.71 10.35,-6.9 15.97,-9.52 8.7,-4.06 17.97,-6.8 27.42,-8.41 11.17,-1.9 19.78,-1.31 33.29,-1.31 0.85,0 -0.23,-10.86 -0.27,-11.74 -0.3,-5.88 -0.82,-11.75 -1.49,-17.6 -0.15,-1.31 12.6,-0.8 13.8,-0.56 3.65,0.74 4.12,6.15 6.19,15.49 3.94,17.74 5.13,23.87 4.79,34.63 -0.38,11.64 -18.58,16.61 -28.81,19.33 l 19.52,50.77 c 0,0 -19.15,13.8 -48.05,18.3 -24.28,3.78 -32.66,1.5 -32.66,1.5 l -5.26,-51.06 c 0,0 -7.71,13.01 -9.4,24.27 -1.8,12.02 -1.69,27.03 -1.69,27.03 l -22.52,2.25 c 0,0 -3.21,-16.84 1.13,-47.3 1.75,-12.33 7.46,-25.57 15.68,-34.78 3.73,-4.18 7.89,-7.95 12.38,-11.3 z"
                 id="path267" /><path
                 class="cls-3"
                 d="m 120.41,393.58 11.76,-2.12 c 0,0 0.33,-5.88 -1.14,-11.76 -1.47,-5.88 -5.88,-12.57 -13.39,-10.29 -7.51,2.29 -12.25,16.49 2.78,24.17 z"
                 id="path268" /><path
                 class="cls-7"
                 d="m 124.95,378.9 c 0,0 -3.94,-0.19 -2.06,4.13 1.88,4.32 4.69,2.25 4.69,2.25 0.2,4.5 -2.83,8.42 -7.69,7.89 -2.15,-0.23 -4.12,-1.37 -5.79,-2.75 -6.09,-5.03 -5.47,-10.14 -5.48,-17.16 0,-0.94 -2.82,0.19 -2.82,0.19 l 5.26,-3.57 -3.75,0.19 c 0,0 5.07,-3.75 7.51,-3.19 2.44,0.56 -3.57,-1.69 -3.57,-1.69 0,0 6.38,-2.82 10.14,0.56 3.75,3.38 5.63,6.19 5.63,6.19 l -0.75,4.32 1.5,5.26 -2.82,-2.63 z"
                 id="path269" /></g></g></g></g></g></g></svg>
