<svg width="246" height="341" viewBox="0 0 246 341" fill="none" xmlns="http://www.w3.org/2000/svg">
<path d="M0.984375 14.4375C0.984375 12.1589 1.17969 10.1732 1.57031 8.48047C1.96094 6.78776 2.70964 5.38802 3.81641 4.28125C4.92318 3.10938 6.45312 2.23047 8.40625 1.64453C10.3594 1.05859 12.8984 0.765625 16.0234 0.765625H59.5781C64.0703 0.765625 68.5299 1.05859 72.957 1.64453C77.3841 2.16536 81.6159 3.07682 85.6523 4.37891C89.7539 5.68099 93.5299 7.3737 96.9805 9.45703C100.496 11.5404 103.523 14.1445 106.062 17.2695C108.667 20.3294 110.685 23.9427 112.117 28.1094C113.615 32.2109 114.363 36.9635 114.363 42.3672C114.363 50.375 113.257 57.1458 111.043 62.6797C108.895 68.1484 105.965 72.6732 102.254 76.2539C98.543 79.8346 94.2135 82.569 89.2656 84.457C84.3828 86.3451 79.2396 87.7122 73.8359 88.5586V125.18C73.8359 126.677 73.7057 128.337 73.4453 130.16C73.1849 131.983 72.5339 133.708 71.4922 135.336C70.4505 136.898 68.8555 138.233 66.707 139.34C64.5586 140.447 61.5964 141 57.8203 141H16.0234C12.8984 141 10.3594 140.707 8.40625 140.121C6.45312 139.535 4.92318 138.689 3.81641 137.582C2.70964 136.475 1.96094 135.076 1.57031 133.383C1.17969 131.69 0.984375 129.704 0.984375 127.426V14.4375ZM100.594 43.832C100.594 39.9258 100.073 36.3451 99.0312 33.0898C97.9896 29.7695 96.3945 26.8724 94.2461 24.3984C92.0977 21.9245 89.3307 19.8737 85.9453 18.2461C82.5599 16.6185 78.5234 15.5117 73.8359 14.9258V75.5703C78.5234 74.8542 82.5599 73.5521 85.9453 71.6641C89.3307 69.776 92.0977 67.4323 94.2461 64.6328C96.3945 61.8333 97.9896 58.6758 99.0312 55.1602C100.073 51.5794 100.594 47.8034 100.594 43.832ZM65.5352 13.7539C64.2331 13.6888 62.8659 13.6562 61.4336 13.6562C60.0664 13.5911 58.8945 13.5586 57.918 13.5586V132.797C59.4805 132.797 60.75 132.764 61.7266 132.699C62.7031 132.569 63.4844 132.309 64.0703 131.918C64.6562 131.462 65.0469 130.844 65.2422 130.062C65.4375 129.216 65.5352 128.044 65.5352 126.547V13.7539ZM215.73 114.438C213.257 115.805 210.717 116.944 208.113 117.855C205.574 118.767 202.938 119.516 200.203 120.102V127.426C200.203 129.509 199.975 131.397 199.52 133.09C199.064 134.717 198.25 136.117 197.078 137.289C195.971 138.461 194.474 139.372 192.586 140.023C190.763 140.674 188.452 141 185.652 141H142.391C139.266 141 136.727 140.707 134.773 140.121C132.82 139.535 131.29 138.689 130.184 137.582C129.077 136.475 128.328 135.076 127.938 133.383C127.547 131.69 127.352 129.704 127.352 127.426V14.4375C127.352 12.1589 127.547 10.1732 127.938 8.48047C128.328 6.78776 129.077 5.38802 130.184 4.28125C131.29 3.10938 132.82 2.23047 134.773 1.64453C136.727 1.05859 139.266 0.765625 142.391 0.765625H185.945C190.633 0.765625 195.223 1.15625 199.715 1.9375C204.272 2.71875 208.569 3.98828 212.605 5.74609C216.707 7.4388 220.451 9.71745 223.836 12.582C227.286 15.4466 230.249 18.9948 232.723 23.2266C235.262 27.3932 237.215 32.276 238.582 37.875C240.014 43.474 240.73 49.9193 240.73 57.2109C240.73 63.4609 240.34 69.125 239.559 74.2031C238.777 79.2812 237.703 83.8711 236.336 87.9727C234.969 92.0742 233.309 95.7201 231.355 98.9102C229.467 102.035 227.352 104.802 225.008 107.211L244.539 132.992C245.19 133.904 245.516 134.783 245.516 135.629C245.516 136.605 245.158 137.452 244.441 138.168C243.79 138.884 243.074 139.47 242.293 139.926L236.434 143.344C235.978 143.604 235.49 143.799 234.969 143.93C234.513 144.125 234.025 144.223 233.504 144.223C232.788 144.223 232.072 143.995 231.355 143.539C230.639 143.083 229.988 142.302 229.402 141.195L215.73 114.438ZM226.961 58.9688C226.961 53.1094 226.44 47.7057 225.398 42.7578C224.357 37.8099 222.762 33.4479 220.613 29.6719C218.465 25.8958 215.698 22.7708 212.312 20.2969C208.927 17.8229 204.891 16.1302 200.203 15.2188V107.309C204.891 106.267 208.927 104.379 212.312 101.645C215.698 98.8451 218.465 95.362 220.613 91.1953C222.762 87.0286 224.357 82.2435 225.398 76.8398C226.44 71.3711 226.961 65.4141 226.961 58.9688ZM191.902 13.7539C190.6 13.6888 189.233 13.6562 187.801 13.6562C186.434 13.5911 185.262 13.5586 184.285 13.5586V132.797C185.848 132.797 187.117 132.764 188.094 132.699C189.07 132.569 189.852 132.309 190.438 131.918C191.023 131.462 191.414 130.844 191.609 130.062C191.805 129.216 191.902 128.044 191.902 126.547V13.7539ZM0.984375 214.438C0.984375 212.159 1.17969 210.173 1.57031 208.48C1.96094 206.788 2.70964 205.388 3.81641 204.281C4.92318 203.109 6.45312 202.23 8.40625 201.645C10.3594 201.059 12.8984 200.766 16.0234 200.766H59.5781C63.3542 200.766 66.2188 201.319 68.1719 202.426C70.1901 203.533 71.5898 204.932 72.3711 206.625C73.2174 208.253 73.6732 210.01 73.7383 211.898C73.8034 213.721 73.8359 215.414 73.8359 216.977V325.18C73.8359 326.677 73.7057 328.337 73.4453 330.16C73.1849 331.983 72.5339 333.708 71.4922 335.336C70.4505 336.898 68.8555 338.233 66.707 339.34C64.5586 340.447 61.5964 341 57.8203 341H16.0234C12.8984 341 10.3594 340.707 8.40625 340.121C6.45312 339.535 4.92318 338.689 3.81641 337.582C2.70964 336.475 1.96094 335.076 1.57031 333.383C1.17969 331.69 0.984375 329.704 0.984375 327.426V214.438ZM65.5352 215.219C65.5352 213.786 65.4375 212.647 65.2422 211.801C65.0469 210.954 64.6562 210.336 64.0703 209.945C63.4844 209.49 62.7031 209.229 61.7266 209.164C60.75 209.034 59.4805 208.969 57.918 208.969V332.797C59.4805 332.797 60.75 332.764 61.7266 332.699C62.7031 332.569 63.4844 332.309 64.0703 331.918C64.6562 331.462 65.0469 330.844 65.2422 330.062C65.4375 329.216 65.5352 328.044 65.5352 326.547V215.219ZM164.656 326.352C164.656 327.849 164.461 329.444 164.07 331.137C163.745 332.829 163.029 334.424 161.922 335.922C160.88 337.354 159.383 338.559 157.43 339.535C155.477 340.512 152.938 341 149.812 341H106.844C103.784 341 101.277 340.707 99.3242 340.121C97.4362 339.535 95.9388 338.689 94.832 337.582C93.7253 336.475 92.9766 335.076 92.5859 333.383C92.1953 331.69 92 329.704 92 327.426V217.758C92 214.047 92.4232 211.085 93.2695 208.871C94.1159 206.592 95.3203 204.867 96.8828 203.695C98.4453 202.458 100.301 201.677 102.449 201.352C104.663 200.961 107.104 200.766 109.773 200.766H200.496C203.621 200.766 205.184 202.393 205.184 205.648V214.633C205.184 215.935 204.793 216.781 204.012 217.172C203.23 217.562 202.286 217.758 201.18 217.758C200.529 217.758 199.52 217.66 198.152 217.465C196.785 217.27 195.19 217.042 193.367 216.781C191.544 216.456 189.559 216.098 187.41 215.707C185.327 215.251 183.211 214.828 181.062 214.438C176.049 213.461 170.581 212.322 164.656 211.02V235.824H200.984C202.352 235.824 203.035 236.508 203.035 237.875V247.641C203.035 249.073 202.352 249.789 200.984 249.789H164.656V326.352ZM156.355 209.555L148.738 207.992V332.797C150.301 332.797 151.57 332.764 152.547 332.699C153.523 332.569 154.305 332.309 154.891 331.918C155.477 331.462 155.867 330.844 156.062 330.062C156.258 329.216 156.355 328.044 156.355 326.547V209.555Z" fill="black"/>
</svg>
